<?xml version="1.0" encoding="utf-8"?>
<!-- Generator: Adobe Illustrator 27.5.0, SVG Export Plug-In . SVG Version: 6.00 Build 0)  -->
<svg version="1.1" xmlns="http://www.w3.org/2000/svg" xmlns:xlink="http://www.w3.org/1999/xlink" x="0px" y="0px"
	 viewBox="0 0 500 500" style="enable-background:new 0 0 500 500;" xml:space="preserve">
<g id="BACKGROUND">
	<rect x="0" style="fill:#F7E6E4;" width="500" height="500"/>
</g>
<g id="OBJECTS">
	<g>
		<defs>
			<rect id="SVGID_1_" x="0" width="500" height="500"/>
		</defs>
		<clipPath id="SVGID_00000006670438628878471390000010740213092130931079_">
			<use xlink:href="#SVGID_1_"  style="overflow:visible;"/>
		</clipPath>
		<path style="clip-path:url(#SVGID_00000006670438628878471390000010740213092130931079_);fill:#F7D1CD;" d="M-23.558,224.973
			c16.382,42.125,68.824,73.719,113.32,81.654c15.442,2.754,31.43,2.78,46.394,7.484c29.833,9.377,52.256,38.585,53.496,69.816
			c1.061,26.729-11.397,53.538,7.346,77.024c11.141,13.96,29.853,21.468,47.554,19.081c37.661-5.08,64.081-34.28,104.483-20.316
			c29.177,10.085,59.794,43.798,42.544,76.004H-23.558V224.973z"/>
		<path style="clip-path:url(#SVGID_00000006670438628878471390000010740213092130931079_);fill:#F7D1CD;" d="M534.336-37.613
			H265.649C247.2-14.228,237.043,16.618,242.454,45.91c5.41,29.291,28.025,55.805,57.2,61.807
			c20.099,4.135,41.451-1.186,61.227,4.289c23.336,6.461,41.249,28.996,42.279,53.188c0.52,12.202-2.831,24.287-2.732,36.5
			c0.146,17.978,8.181,35.752,21.58,47.739c13.399,11.987,31.955,18.001,49.838,16.152c27.237-2.816,49.764-22.382,67.15-43.536
			L534.336-37.613z"/>
		<g style="clip-path:url(#SVGID_00000006670438628878471390000010740213092130931079_);">
			
				<ellipse transform="matrix(0.2321 -0.9727 0.9727 0.2321 86.202 245.9587)" style="fill:#2B398E;" cx="198.872" cy="68.386" rx="23.318" ry="23.318"/>
			<g>
				<path style="fill:#FFFFFF;" d="M211.346,63.527c-0.393-2.096-4.91-1.324-7.323-0.754c-0.623,0.147-1.166-0.44-0.968-1.049
					c0.68-2.085,1.552-5.834-0.404-7.151c-0.488-0.328-1.154,0.009-1.233,0.592c-0.281,2.068-1.336,6.743-5.216,8.761l-2.378,1.189
					c-0.278,0.139-0.454,0.424-0.454,0.735v8.588c0,0.368,0.242,0.691,0.596,0.79c1.982,0.555,8.56,2.192,14.404,1.286
					c0.069-0.011,0.137-0.027,0.202-0.052C212.237,75.042,211.879,66.374,211.346,63.527z"/>
				<path style="fill:#FFFFFF;" d="M190.885,65.343h-3.997c-0.454,0-0.821,0.368-0.821,0.821v8.131c0,0.454,0.368,0.821,0.821,0.821
					h3.997c0.454,0,0.821-0.368,0.821-0.821v-8.131C191.706,65.71,191.338,65.343,190.885,65.343z"/>
			</g>
		</g>
		<g style="clip-path:url(#SVGID_00000006670438628878471390000010740213092130931079_);">
			<path style="fill:#E8B585;" d="M340.635,207.912c0,0,29.71,10.464,45.011,24.709c6.294,5.859,9.27,13.082,13.175,20.403
				c5.014,9.398,13.747,16.503,19.192,25.837c5.726,9.816,9.813,20.594,11.957,31.757c2.333,12.15,6.969,16.243,16.425,23.628
				c9.55,7.458,19.1,14.916,28.649,22.374c13.609,10.628,27.219,21.257,40.851,31.903c0,0-1.002,39.078-40.581,58.617
				c-15.03-9.018-78.348-64.924-78.348-64.924c-56.92-3.315-71.038-57.266-79.617-63.068
				C310.609,264.325,340.635,207.912,340.635,207.912z"/>
			<path style="opacity:0.5;fill:#E8B585;" d="M444.415,384.237c-18.248,5.262-36.301-9.077-42.404-15.767
				c-6.103-6.69-7.961-24.971-7.961-24.971l-48.081,15.895c11.516,11.58,27.653,21.461,50.999,22.821
				c0,0,21.709,19.167,42.722,36.866c1.203-0.418,2.055-0.823,2.376-1.197C444.353,415.214,462.663,378.975,444.415,384.237z"/>
			<path style="fill:#E8B585;" d="M336.705,207.912c0,0-74.956-36.771-82.93-33.615c-8.429,3.336,19.562,28.932,35.662,37.455
				c16.099,8.523,53.942,31.637,53.942,31.637S353.187,214.78,336.705,207.912z"/>
			<g>
				<path style="fill:#2B398E;" d="M386.319,161.809h-97.406c-5.295,0-9.587,4.292-9.587,9.587v193.651
					c0,5.295,4.292,9.587,9.587,9.587h97.406c5.294,0,9.587-4.292,9.587-9.587V171.395
					C395.906,166.1,391.614,161.809,386.319,161.809z"/>
				<path style="fill:#FFFFFF;" d="M386.32,168.686h-22.168c-2.811,0-5.321,1.76-6.279,4.403v0c-0.958,2.643-3.469,4.403-6.28,4.403
					h-27.952c-2.811,0-5.321-1.76-6.28-4.403v0c-0.958-2.643-3.468-4.403-6.279-4.403h-22.168c-1.497,0-2.71,1.213-2.71,2.71
					v175.766c0,1.496,1.213,2.71,2.71,2.71h97.406c1.496,0,2.708-1.212,2.708-2.708V171.395
					C389.028,169.899,387.815,168.686,386.32,168.686z"/>
				<g>
					<path style="fill:#FFFFFF;" d="M340.79,169.956c0,1.753-1.421,3.174-3.174,3.174c-1.753,0-3.174-1.421-3.174-3.174
						s1.421-3.174,3.174-3.174C339.369,166.782,340.79,168.203,340.79,169.956z"/>
					<circle style="fill:#FFFFFF;" cx="348.616" cy="169.956" r="1.891"/>
					<circle style="fill:#FFFFFF;" cx="326.616" cy="169.956" r="1.891"/>
				</g>
				<rect x="286.204" y="202.492" style="fill:#E7EDF3;" width="102.823" height="93.257"/>
				<rect x="286.204" y="304.403" style="fill:#E7EDF3;" width="102.823" height="33.314"/>
				<path style="fill:#1B75BA;" d="M351.635,356.3h-28.037c-1.943,0-3.519,1.575-3.519,3.519v5.133c0,1.943,1.575,3.519,3.519,3.519
					h28.037c1.943,0,3.519-1.575,3.519-3.519v-5.133C355.153,357.875,353.578,356.3,351.635,356.3z"/>
				<path style="fill:#F9AE40;" d="M374.114,215.116h-72.995c-3.679,0-6.661,2.982-6.661,6.661v46.488
					c0,3.679,2.982,6.661,6.661,6.661h72.995c3.679,0,6.661-2.982,6.661-6.661v-46.488
					C380.774,218.098,377.792,215.116,374.114,215.116z"/>
				<path style="fill:#CED2D6;" d="M338.781,280.924h-40.356c-2.191,0-3.968,1.776-3.968,3.968c0,2.191,1.776,3.967,3.968,3.967
					h40.356c2.191,0,3.968-1.776,3.968-3.967C342.749,282.7,340.973,280.924,338.781,280.924z"/>
				<path style="fill:#CED2D6;" d="M356.016,312.427h-40.356c-2.191,0-3.968,1.776-3.968,3.967c0,2.191,1.776,3.968,3.968,3.968
					h40.356c2.191,0,3.968-1.776,3.968-3.968C359.984,314.204,358.208,312.427,356.016,312.427z"/>
				<path style="fill:#E7EDF3;" d="M338.781,189.468h-40.356c-2.191,0-3.968,1.776-3.968,3.967c0,2.191,1.776,3.968,3.968,3.968
					h40.356c2.191,0,3.968-1.776,3.968-3.968C342.749,191.244,340.973,189.468,338.781,189.468z"/>
				<path style="fill:#E7EDF3;" d="M376.807,189.468h-14.173c-2.191,0-3.968,1.776-3.968,3.968c0,2.191,1.776,3.967,3.968,3.967
					h14.173c2.191,0,3.968-1.776,3.968-3.967C380.774,191.244,378.998,189.468,376.807,189.468z"/>
				<g>
					<rect x="313.961" y="229.356" style="fill:#27A8DF;" width="47.309" height="31.33"/>
					<polygon style="fill:#64CAED;" points="337.616,252.205 361.271,236.54 361.271,229.356 313.961,229.356 313.961,236.54 					
						"/>
				</g>
				<path style="fill:#EF5A29;" d="M367.415,229.356c0,3.393-2.751,6.144-6.144,6.144c-3.393,0-6.144-2.751-6.144-6.144
					c0-3.393,2.751-6.144,6.144-6.144C364.664,223.212,367.415,225.963,367.415,229.356z"/>
				<g>
					<path style="fill:#FFFFFF;" d="M361.053,225.973c0.413,0,0.779,0.053,1.097,0.158c0.319,0.105,0.59,0.248,0.815,0.429
						c0.224,0.181,0.394,0.395,0.511,0.641c0.116,0.246,0.173,0.51,0.173,0.793c0,0.76-0.43,1.484-1.292,2.172l-1.423,1.141h2.606
						c0.044,0.079,0.086,0.181,0.125,0.304c0.04,0.123,0.059,0.257,0.059,0.402c0,0.261-0.057,0.447-0.173,0.56
						c-0.116,0.112-0.269,0.168-0.456,0.168h-3.769c-0.16-0.109-0.285-0.248-0.375-0.418c-0.091-0.17-0.136-0.371-0.136-0.603
						c0-0.246,0.05-0.454,0.152-0.624c0.102-0.17,0.214-0.306,0.337-0.407l1.499-1.281c0.188-0.159,0.344-0.302,0.467-0.429
						c0.123-0.126,0.223-0.24,0.299-0.342c0.076-0.101,0.131-0.195,0.163-0.282c0.033-0.087,0.049-0.17,0.049-0.25
						c0-0.202-0.089-0.362-0.266-0.478c-0.178-0.116-0.397-0.174-0.658-0.174c-0.29,0-0.548,0.046-0.776,0.136
						c-0.228,0.091-0.418,0.186-0.57,0.288c-0.124-0.087-0.225-0.195-0.305-0.326c-0.08-0.13-0.119-0.282-0.119-0.456
						c0-0.376,0.178-0.657,0.532-0.841C359.975,226.065,360.452,225.973,361.053,225.973z"/>
				</g>
				<g>
					<rect x="362.648" y="312.427" style="fill:#F9AE40;" width="18.126" height="18.126"/>
					<g>
						<path style="fill:#FFFFFF;" d="M371.711,322.628c1.721,0,3.116-1.395,3.116-3.116s-1.395-3.117-3.116-3.117
							c-1.721,0-3.117,1.395-3.117,3.117S369.99,322.628,371.711,322.628z"/>
						<path style="fill:#FFFFFF;" d="M371.711,323.045c-3.282,0-5.943,2.661-5.943,5.943v1.566h11.886v-1.566
							C377.654,325.706,374.993,323.045,371.711,323.045z"/>
					</g>
				</g>
			</g>
			<path style="fill:#E8B585;" d="M279.333,298.041c0,0-28.436,0.766-31.905,12.526c-3.469,11.76,37.59,23.667,42.246,23.308
				c4.657-0.358-0.669-15.172-10.341-19.829V298.041z"/>
			<path style="fill:#E8B585;" d="M420.279,292.992c-0.408-2.014-0.803-3.827-1.134-5.356c-1.124-5.192-4.574-9.147-10.088-9.424
				c-7.901-0.397-15.525,2.727-21.893,6.993c-18.88,12.65-55.729,23.866-55.729,23.866s4.601,13.842,29.759,10.805
				c7.83-2.868,19.331-5.9,30.117-6.5c0.001,0.011,2.326,28.203,18.936,24.341C426.98,333.826,423.296,307.893,420.279,292.992z"/>
			<path style="fill:#EF5A29;" d="M337.796,316.394c0.047-0.011,11.322-2.718,15.234-4.43c3.49-1.527,3.368-8.991-3.87-9.217
				c-10.039,3.885-17.725,6.325-17.725,6.325S332.745,313.15,337.796,316.394z"/>
			<path style="fill:#EF5A29;" d="M288.437,322.849c-1.616-0.661-13.032-5.113-14.337,0.486c-0.922,3.957,2.57,6.797,5.083,8.287
				c5.136,1.511,9.206,2.352,10.492,2.253C292.484,333.66,291.656,328.183,288.437,322.849z"/>
			<path style="fill:#F9AE40;" d="M495.677,367.022c0,0,25.498-5.794,41.997,1.449c16.498,7.243,23.135,29.273,34.402,36.516
				c11.267,7.243,36.474,20.72,36.474,20.72s-6.036,74.443-58.347,89.331c0,0-32.488-23.339-38.979-24.546
				c-6.491-1.207-23.242-5.293-47.326-16.95c-17.016-8.236-14.293-40.994-14.293-40.994S480.988,376.743,495.677,367.022z"/>
			<path style="opacity:0.5;fill:#E8B585;" d="M268.278,309.44c4.656,0.14,11.056,4.607,11.056,4.607v-16.005
				c0,0-12.999,0.356-22.492,4.219C262.118,303.851,270.154,307.841,268.278,309.44z"/>
			<path style="fill:#E8B585;" d="M279.33,271.409c0,0-30.145,0.813-33.823,13.279c-3.678,12.467,48.275,30.908,52.323,28.058
				c6.73-4.738-8.247-19.433-18.5-24.369V271.409z"/>
			<path style="fill:#EF5A29;" d="M294.952,300.639c-3.029-1.636-12.431-6.21-14.372-1.076c-2.321,6.137,6.499,11.01,6.499,11.01
				s1.213,0.628,2.781,1.389c4.13,1.032,7.119,1.384,7.971,0.784C301.195,310.377,299.135,305.521,294.952,300.639z"/>
			<path style="opacity:0.5;fill:#E8B585;" d="M279.33,288.376v-16.967c0,0-10.411,0.284-19.744,3.046
				c2.562,0.944,6.42,2.736,9.359,4.15c1.812,0.872,2.039,3.347,0.43,4.553l-0.073,0.055
				C274.932,284.579,279.33,288.376,279.33,288.376z"/>
			<path style="fill:#E8B585;" d="M279.33,241.581c0,0-30.145,0.812-33.823,13.279c-3.678,12.467,48.275,30.908,52.323,28.058
				c6.73-4.738-8.247-19.433-18.5-24.369V241.581z"/>
			<path style="fill:#EF5A29;" d="M297.83,282.918c3.092-2.177,1.596-6.457-1.913-10.925l0,0c0,0-13.016-7.751-15.337-1.614
				c-2.312,6.114,6.427,10.97,6.493,11.007C292.63,282.979,296.797,283.646,297.83,282.918z"/>
			<path style="opacity:0.5;fill:#E8B585;" d="M366.562,313.038c-3.586,4.715-12.139,6.412-17.051,7.009
				c3.292,0.369,7.149,0.376,11.683-0.171c7.83-2.868,19.331-5.9,30.117-6.5c0.001,0.008,1.196,14.474,7.978,21.262
				c-5.593-7.536-4.345-24.292-3.814-30.235C389.374,312.517,370.541,313.398,366.562,313.038z"/>
			<path style="opacity:0.5;fill:#F9AE40;" d="M539.556,454.89c-8.991,10.115-26.974,11.614-38.213,8.242
				c-11.239-3.372-30.72-26.973-17.943-46.08c10.293-15.392,13.7-41.086,14.637-50.498c-1.497,0.273-2.359,0.468-2.359,0.468
				c-14.689,9.721-46.072,65.526-46.072,65.526s-2.723,32.758,14.293,40.994c24.084,11.657,40.835,15.743,47.326,16.95
				c6.491,1.207,38.979,24.546,38.979,24.546c6.951-1.978,13.078-5.016,18.489-8.783C545.608,495.42,538.184,468.26,539.556,454.89z
				"/>
			<g>
				<path style="fill:#EF5A29;" d="M467.76,346.195c0,0-29.513,53.602-44.518,62.29l26.364,24.063c0,0,36.302-17.22,46.072-65.526
					C485.889,360.892,467.76,346.195,467.76,346.195z"/>
				<g>
					<g>
						<path style="fill:#D6441D;" d="M453.845,422.744c-0.416,0-0.834-0.131-1.19-0.402l-16.384-12.478
							c-0.863-0.658-1.03-1.89-0.372-2.754c0.657-0.864,1.892-1.029,2.754-0.373l16.384,12.478c0.863,0.658,1.03,1.89,0.372,2.753
							C455.023,422.478,454.437,422.744,453.845,422.744z"/>
					</g>
					<g>
						<path style="fill:#D6441D;" d="M463.645,412.323c-0.416,0-0.834-0.131-1.19-0.402l-16.384-12.478
							c-0.863-0.658-1.03-1.89-0.372-2.754c0.656-0.865,1.892-1.03,2.754-0.373l16.384,12.478c0.863,0.658,1.03,1.89,0.372,2.754
							C464.823,412.056,464.238,412.323,463.645,412.323z"/>
					</g>
					<g>
						<path style="fill:#D6441D;" d="M474.155,397.902c-0.416,0-0.834-0.131-1.19-0.402l-16.384-12.478
							c-0.863-0.658-1.03-1.89-0.372-2.754c0.658-0.864,1.891-1.029,2.754-0.373l16.384,12.478c0.863,0.658,1.03,1.89,0.372,2.754
							C475.334,397.635,474.748,397.902,474.155,397.902z"/>
					</g>
					<g>
						<path style="fill:#D6441D;" d="M481.433,383.625c-0.416,0-0.834-0.131-1.19-0.402l-16.384-12.478
							c-0.864-0.658-1.03-1.89-0.372-2.753c0.658-0.865,1.892-1.029,2.754-0.373l16.384,12.478c0.864,0.658,1.03,1.89,0.372,2.754
							C482.611,383.359,482.025,383.625,481.433,383.625z"/>
					</g>
					<g>
						<path style="fill:#D6441D;" d="M486.23,371.152c-0.416,0-0.834-0.131-1.19-0.402l-16.383-12.478
							c-0.863-0.658-1.03-1.891-0.372-2.753c0.656-0.865,1.892-1.029,2.754-0.373l16.383,12.478c0.864,0.658,1.03,1.891,0.372,2.754
							C487.408,370.885,486.822,371.152,486.23,371.152z"/>
					</g>
				</g>
				<path style="opacity:0.5;fill:#EF5A29;" d="M467.883,402.263c-12.411,4.043-25.261-3.117-31.284-7.267
					c-4.903,6.29-9.588,11.307-13.358,13.49l26.364,24.063c0,0,24.86-11.819,38.97-43.279
					C482.571,394.552,475.21,399.875,467.883,402.263z"/>
			</g>
		</g>
		<g style="clip-path:url(#SVGID_00000006670438628878471390000010740213092130931079_);">
			<path style="fill:#E8B585;" d="M163.911,145.583c0,0-29.712,10.465-45.012,24.71c-15.3,14.245-44.564,88.984-44.564,88.984
				l-85.685,66.916c0,0,1.002,39.078,40.581,58.617c15.03-9.018,78.348-64.924,78.348-64.924
				c56.92-3.315,71.038-57.266,79.617-63.068C193.936,201.996,163.911,145.583,163.911,145.583z"/>
			<path style="opacity:0.5;fill:#E8B585;" d="M111.453,292.244c0,0-12.259,18.725-20.619,27.807
				c-8.36,9.082-37.817-1.205-47.77-3.028c-9.952-1.823-12.738,57.092-9.554,59.879c0.532,0.465,2.238,0.996,4.682,1.557
				c22.715-17.365,69.386-58.572,69.386-58.572c26.836-1.563,44.152-14.382,55.865-28.103l-35.19-10.061L111.453,292.244z"/>
			<path style="fill:#E8B585;" d="M279.216,143.137c-2.151-2.868-10.498,1.232-12.815,2.048
				c-22.337,7.864-64.22,34.711-85.83,44.418c-0.385,0.173-5.046,1.885-5.046,2.279l2.982,21.619c0,0,16.388-4.643,35.56-13.565
				C260.314,178.413,281.358,145.993,279.216,143.137z"/>
			<path style="opacity:0.5;fill:#E8B585;" d="M211.223,194.701c0.299,0.467,2.729,2.086,5.619,3.9
				c6.248-3.032,12.027-6.251,17.319-9.561c-3.824,0.448-6.718,0.059-6.718,0.059l-0.214-24.63
				c-6.91,3.83-13.875,7.769-20.502,11.46C208.186,184.017,210.744,193.951,211.223,194.701z"/>
			<path style="fill:#E8B585;" d="M163.911,145.583c0,0,74.956-36.771,82.93-33.615c8.429,3.336-19.562,28.932-35.662,37.455
				c-16.099,8.523-53.942,31.637-53.942,31.637S147.429,152.451,163.911,145.583z"/>
			<g>
				<path style="fill:#4C2A4B;" d="M211.568,99.479h-97.406c-5.295,0-9.587,4.292-9.587,9.587v193.651
					c0,5.294,4.292,9.587,9.587,9.587h97.406c5.295,0,9.587-4.292,9.587-9.587V109.066
					C221.154,103.771,216.862,99.479,211.568,99.479z"/>
				<path style="fill:#FFFFFF;" d="M211.568,106.357H189.4c-2.811,0-5.321,1.76-6.279,4.403v0c-0.958,2.643-3.469,4.403-6.28,4.403
					h-27.952c-2.811,0-5.321-1.76-6.28-4.403v0c-0.958-2.643-3.468-4.403-6.279-4.403h-22.168c-1.496,0-2.71,1.213-2.71,2.71
					v175.766c0,1.496,1.213,2.71,2.71,2.71h97.406c1.496,0,2.708-1.212,2.708-2.708V109.066
					C214.276,107.57,213.064,106.357,211.568,106.357z"/>
				<g>
					<circle style="fill:#FFFFFF;" cx="162.865" cy="107.627" r="3.174"/>
					<path style="fill:#FFFFFF;" d="M175.755,107.627c0,1.044-0.847,1.891-1.891,1.891c-1.044,0-1.891-0.847-1.891-1.891
						s0.847-1.891,1.891-1.891C174.909,105.736,175.755,106.583,175.755,107.627z"/>
					<path style="fill:#FFFFFF;" d="M149.974,107.627c0,1.044,0.846,1.891,1.891,1.891c1.044,0,1.891-0.847,1.891-1.891
						s-0.846-1.891-1.891-1.891C150.82,105.736,149.974,106.583,149.974,107.627z"/>
				</g>
				<rect x="111.453" y="140.163" style="fill:#E7EDF3;" width="102.824" height="93.257"/>
				<rect x="111.453" y="242.074" style="fill:#E7EDF3;" width="102.824" height="33.314"/>
				<path style="fill:#6B3B6B;" d="M176.883,293.971h-28.037c-1.943,0-3.519,1.575-3.519,3.519v5.133
					c0,1.943,1.575,3.519,3.519,3.519h28.037c1.943,0,3.519-1.575,3.519-3.519v-5.133
					C180.402,295.546,178.826,293.971,176.883,293.971z"/>
				<path style="fill:#8ED7FF;" d="M199.362,152.787h-72.995c-3.679,0-6.661,2.982-6.661,6.661v46.488
					c0,3.679,2.982,6.661,6.661,6.661h72.995c3.678,0,6.661-2.982,6.661-6.661v-46.488
					C206.023,155.769,203.041,152.787,199.362,152.787z"/>
				<g>
					<path style="fill:#54C0EF;" d="M182.374,182.239c-1.814-2.266-5.261-2.266-7.075,0l-7.795,9.739L154.3,175.479
						c-1.814-2.266-5.261-2.266-7.075,0l-23.162,28.94h33.484h19.914h22.664L182.374,182.239z"/>
					<path style="fill:#FDD935;" d="M173.901,173.095c0,3.26-2.643,5.903-5.903,5.903s-5.903-2.643-5.903-5.903
						c0-3.26,2.643-5.903,5.903-5.903S173.901,169.835,173.901,173.095z"/>
					<path style="fill:#FFFFFF;" d="M155.542,168.297c0-1.961-1.589-3.55-3.55-3.55c-0.624,0-1.21,0.162-1.72,0.445
						c-0.738-1.652-2.392-2.806-4.318-2.806c-2.292,0-4.202,1.63-4.637,3.794c-0.242-0.066-0.492-0.112-0.754-0.112
						c-1.595,0-2.889,1.293-2.889,2.889h17.804C155.519,168.743,155.542,168.523,155.542,168.297z"/>
					<path style="fill:#FFFFFF;" d="M197.26,176.492c0-2.144-1.738-3.882-3.882-3.882c-0.682,0-1.323,0.177-1.88,0.487
						c-0.806-1.807-2.615-3.068-4.722-3.068c-2.506,0-4.595,1.783-5.07,4.149c-0.265-0.072-0.538-0.123-0.825-0.123
						c-1.745,0-3.159,1.414-3.159,3.159h19.467C197.234,176.98,197.26,176.739,197.26,176.492z"/>
				</g>
				<path style="fill:#CED2D6;" d="M164.03,218.594h-40.356c-2.191,0-3.968,1.776-3.968,3.968c0,2.191,1.776,3.967,3.968,3.967
					h40.356c2.191,0,3.968-1.776,3.968-3.967C167.998,220.371,166.221,218.594,164.03,218.594z"/>
				<path style="fill:#E7EDF3;" d="M164.03,127.138h-40.356c-2.191,0-3.968,1.776-3.968,3.967c0,2.191,1.776,3.968,3.968,3.968
					h40.356c2.191,0,3.968-1.776,3.968-3.968C167.998,128.915,166.221,127.138,164.03,127.138z"/>
				<path style="fill:#E7EDF3;" d="M202.055,127.138h-14.173c-2.191,0-3.968,1.776-3.968,3.967c0,2.191,1.776,3.968,3.968,3.968
					h14.173c2.191,0,3.968-1.776,3.968-3.968C206.023,128.915,204.246,127.138,202.055,127.138z"/>
				<rect x="119.707" y="250.098" style="fill:#8ED7FF;" width="86.316" height="18.126"/>
			</g>
			<path style="fill:#E8B585;" d="M92.527,227.233c0,0,18.441-1.395,30.815-12.93c12.375-11.534,24.002-25.664,30.998-24.826
				c5.723,0.685,3.113,21.095-9.271,34.479c-12.384,13.385-15.849,35.643-25.653,45.483c-8.82,8.854-19.86,19.79-30.691,7.618
				c-7.334-8.243-8.543-15.512-6.31-25.975C84.136,243.017,86.615,233.357,92.527,227.233z"/>
			<path style="fill:#E8B585;" d="M221.163,204.398c0,0,26.264,0.708,29.468,11.57c3.204,10.862-42.059,26.929-45.587,24.445
				c-5.864-4.128,7.185-16.931,16.118-21.232V204.398z"/>
			<path style="fill:#E8B585;" d="M221.163,236.916c0,0,26.264,0.708,29.468,11.569c3.204,10.862-34.718,21.859-39.02,21.528
				c-4.301-0.331,0.618-14.014,9.551-18.315V236.916z"/>
			<path style="fill:#FFFFFF;" d="M35.962,282.009c0,0,15.115,33.628,29.797,47.75c-2.921,5.854-6.427,12.801-6.427,12.801
				l11.685-6.429l14.627,12.514L56.41,372.421c0,0-37.392-31.641-48.493-66.65C14.929,299.39,35.962,282.009,35.962,282.009z"/>
			<path style="fill:#F9D3B7;" d="M137.675,204.398c0,0,8.692-11.505,13.696-12.408c3.14-0.443,5.591,2.523,2.97,9.5
				c-2.621,6.977-6.284,11.219-6.284,11.219S137.585,215.33,137.675,204.398z"/>
			<path style="fill:#F9D3B7;" d="M216.437,229.04c-0.5-0.079-1.004,0.007-1.469,0.204c-1.736,0.735-6.128,2.945-9.633,7.671
				c-0.577,1.559,0.397,2.437,1.731,3.001c1.072,0.453,8.181-1.756,10.941-2.645c0.749-0.241,1.369-0.773,1.695-1.489
				C220.6,233.809,221.672,229.868,216.437,229.04z"/>
			<path style="fill:#F9D3B7;" d="M219.545,259.737c-0.402-0.027-0.795,0.077-1.151,0.267c-1.324,0.706-4.649,2.771-7.091,6.767
				c-0.347,1.277,0.488,1.904,1.586,2.257c0.882,0.283,6.361-1.975,8.486-2.875c0.576-0.244,1.03-0.71,1.238-1.301
				C223.185,263.222,223.754,260.021,219.545,259.737z"/>
			<path style="opacity:0.5;fill:#E8B585;" d="M221.163,204.398v14.783l6.282-3.13c0,0-3.201-1.687-3.141-4.537
				c0.04-1.872,2.183-4.77,3.654-6.545C224.02,204.477,221.163,204.398,221.163,204.398z"/>
			<path style="opacity:0.5;fill:#E8B585;" d="M231.425,237.996c-5.618-0.952-10.262-1.08-10.262-1.08v14.783
				c0,0,1.794-0.582,3.397-1.516C220.25,246.258,227.858,240.393,231.425,237.996z"/>
			<path style="opacity:0.5;fill:#E8B585;" d="M141.051,229.011c0,0-9.297,8.025-13.319,16.271
				c-4.022,8.244-17.874,32.852-32.664,36.438c8.71,3.314,17.248-5.153,24.348-12.28c8.65-8.683,12.374-27.027,21.638-40.419
				L141.051,229.011z"/>
			<path style="fill:#E7EDF3;" d="M17.533,320.051c-0.026,2.279-0.006,4.51,0.056,6.693c15.269,25.733,38.821,45.677,38.821,45.677
				l29.233-23.776l-14.627-12.514l-11.685,6.429c0,0,3.505-6.946,6.427-12.801c-2.604-2.504-5.219-5.629-7.764-9.064l-0.391-0.157
				C57.604,320.538,38.266,333.237,17.533,320.051z"/>
			<path style="fill:#2B398E;" d="M14.199,300.272c0,0,13.633,47.157,50.594,65.331l-115.751,100.75
				c0,0-44.262-31.785-62.951-95.565C-94.237,359.139,14.199,300.272,14.199,300.272z"/>
			<path style="fill:#2B398E;" d="M57.604,331.673c0,2.462-1.996,4.458-4.458,4.458c-2.462,0-4.458-1.996-4.458-4.458
				c0-2.462,1.996-4.458,4.458-4.458C55.608,327.215,57.604,329.211,57.604,331.673z"/>
			<path style="opacity:0.5;fill:#2B398E;" d="M24.168,323.483l-0.166-0.103c0,0,3.84,43.823-21.507,67.181
				c-16.762,15.447-56.121,36.107-80.865,48.332c14.685,18.308,27.412,27.458,27.412,27.458l115.751-100.75
				C45.144,355.941,32.088,338.088,24.168,323.483z"/>
		</g>
		<g style="clip-path:url(#SVGID_00000006670438628878471390000010740213092130931079_);">
			<path style="fill:#8ED7FF;" d="M270.297,88.459h39.105c2.315,0,4.192,1.877,4.192,4.192v23.29v12.434v14.638l-12.386-14.638
				h-30.911c-2.315,0-4.192-1.877-4.192-4.192V92.651C266.105,90.336,267.982,88.459,270.297,88.459z"/>
			<path style="fill:#FFFFFF;" d="M276.873,106.538c-1.111-1.083-0.498-2.97,1.038-3.193l5.624-0.817
				c0.61-0.089,1.137-0.471,1.409-1.024l2.515-5.096c0.687-1.391,2.671-1.391,3.357,0l2.515,5.096
				c0.273,0.552,0.8,0.935,1.409,1.024l5.624,0.817c1.535,0.223,2.149,2.11,1.038,3.193l-4.069,3.967
				c-0.441,0.43-0.642,1.05-0.538,1.657l0.961,5.601c0.262,1.529-1.343,2.695-2.716,1.973l-5.03-2.644
				c-0.545-0.287-1.197-0.287-1.742,0l-5.03,2.644c-1.373,0.722-2.978-0.444-2.716-1.973l0.961-5.601
				c0.104-0.607-0.097-1.227-0.538-1.657L276.873,106.538z"/>
		</g>
		<g style="clip-path:url(#SVGID_00000006670438628878471390000010740213092130931079_);">
			
				<ellipse transform="matrix(0.7071 -0.7071 0.7071 0.7071 -19.6903 334.8014)" style="fill:#EF5A29;" cx="394.296" cy="191.169" rx="21.804" ry="21.804"/>
			<path style="fill:#FFFFFF;" d="M404.892,182.907c-7.064-3.26-10.596,4.891-10.596,4.891s-3.532-8.151-10.597-4.891
				c-7.064,3.26,1.902,17.389,10.597,19.834C402.99,200.296,411.957,186.168,404.892,182.907z"/>
		</g>
		<g style="clip-path:url(#SVGID_00000006670438628878471390000010740213092130931079_);">
			<path style="fill:#EF5A29;" d="M206.826,338.184h-86.163c-9.991,0-18.09,8.099-18.09,18.09v4.006
				c0,9.991,8.099,18.09,18.09,18.09h86.163c9.991,0,18.09-8.099,18.09-18.09v-4.006
				C224.916,346.284,216.817,338.184,206.826,338.184z"/>
			<g>
				<path style="fill:#FFFFFF;" d="M142.072,346.66c-8.609-3.973-12.914,5.96-12.914,5.96s-4.305-9.934-12.914-5.96
					c-8.609,3.974,2.318,21.192,12.914,24.172C139.754,367.852,150.681,350.634,142.072,346.66z"/>
			</g>
			<g>
				<path style="fill:#FFFFFF;" d="M161.296,363.731c1.382,0,2.491-0.357,3.323-1.07c0.831-0.714,1.248-1.697,1.248-2.95
					c-0.238,0.194-0.676,0.422-1.313,0.681c-0.638,0.26-1.454,0.389-2.448,0.389c-0.995,0-1.896-0.14-2.708-0.421
					c-0.81-0.281-1.507-0.697-2.091-1.248c-0.583-0.551-1.038-1.226-1.361-2.026c-0.324-0.799-0.486-1.729-0.486-2.788
					c0-0.929,0.162-1.81,0.486-2.642c0.324-0.832,0.81-1.567,1.459-2.204c0.648-0.637,1.453-1.145,2.415-1.524
					c0.962-0.378,2.08-0.567,3.355-0.567c2.55,0,4.555,0.854,6.014,2.561c1.459,1.707,2.189,4.139,2.189,7.294
					c0,1.794-0.227,3.372-0.682,4.733c-0.453,1.362-1.085,2.496-1.896,3.404c-0.81,0.908-1.778,1.589-2.901,2.043
					c-1.124,0.454-2.367,0.681-3.728,0.681c-1.73,0-3.08-0.238-4.052-0.713c-0.973-0.475-1.459-1.2-1.459-2.172
					c0-0.454,0.102-0.892,0.308-1.313c0.204-0.422,0.448-0.74,0.73-0.957c0.583,0.26,1.194,0.459,1.832,0.6
					C160.166,363.661,160.755,363.731,161.296,363.731z M163.37,356.631c0.411,0,0.827-0.086,1.249-0.259
					c0.421-0.173,0.772-0.411,1.053-0.714v-0.389c-0.022-1.232-0.238-2.129-0.648-2.691c-0.411-0.562-1.016-0.843-1.816-0.843
					c-0.714,0-1.27,0.222-1.669,0.665c-0.401,0.443-0.6,1.043-0.6,1.799c0,0.735,0.226,1.324,0.681,1.767
					C162.073,356.41,162.657,356.631,163.37,356.631z"/>
				<path style="fill:#FFFFFF;" d="M179.386,363.731c1.383,0,2.491-0.357,3.323-1.07c0.831-0.714,1.248-1.697,1.248-2.95
					c-0.238,0.194-0.676,0.422-1.313,0.681c-0.638,0.26-1.454,0.389-2.448,0.389c-0.995,0-1.896-0.14-2.708-0.421
					c-0.81-0.281-1.507-0.697-2.091-1.248c-0.583-0.551-1.037-1.226-1.361-2.026c-0.324-0.799-0.486-1.729-0.486-2.788
					c0-0.929,0.162-1.81,0.486-2.642c0.324-0.832,0.81-1.567,1.459-2.204c0.648-0.637,1.453-1.145,2.415-1.524
					c0.962-0.378,2.08-0.567,3.355-0.567c2.55,0,4.555,0.854,6.014,2.561c1.459,1.707,2.188,4.139,2.188,7.294
					c0,1.794-0.227,3.372-0.682,4.733c-0.454,1.362-1.085,2.496-1.896,3.404c-0.81,0.908-1.778,1.589-2.901,2.043
					c-1.124,0.454-2.367,0.681-3.728,0.681c-1.73,0-3.08-0.238-4.052-0.713c-0.973-0.475-1.459-1.2-1.459-2.172
					c0-0.454,0.102-0.892,0.308-1.313c0.204-0.422,0.448-0.74,0.729-0.957c0.583,0.26,1.194,0.459,1.832,0.6
					C178.256,363.661,178.845,363.731,179.386,363.731z M181.46,356.631c0.411,0,0.827-0.086,1.249-0.259
					c0.422-0.173,0.772-0.411,1.053-0.714v-0.389c-0.022-1.232-0.238-2.129-0.648-2.691c-0.411-0.562-1.016-0.843-1.816-0.843
					c-0.714,0-1.27,0.222-1.669,0.665c-0.4,0.443-0.6,1.043-0.6,1.799c0,0.735,0.226,1.324,0.681,1.767
					C180.163,356.41,180.747,356.631,181.46,356.631z"/>
				<path style="fill:#FFFFFF;" d="M197.476,363.731c1.382,0,2.491-0.357,3.323-1.07c0.831-0.714,1.248-1.697,1.248-2.95
					c-0.238,0.194-0.676,0.422-1.313,0.681c-0.638,0.26-1.454,0.389-2.448,0.389c-0.995,0-1.896-0.14-2.708-0.421
					c-0.81-0.281-1.507-0.697-2.091-1.248c-0.583-0.551-1.037-1.226-1.361-2.026c-0.324-0.799-0.486-1.729-0.486-2.788
					c0-0.929,0.162-1.81,0.486-2.642c0.324-0.832,0.81-1.567,1.459-2.204c0.648-0.637,1.453-1.145,2.415-1.524
					c0.962-0.378,2.08-0.567,3.356-0.567c2.55,0,4.555,0.854,6.014,2.561c1.459,1.707,2.188,4.139,2.188,7.294
					c0,1.794-0.227,3.372-0.682,4.733c-0.454,1.362-1.085,2.496-1.896,3.404c-0.81,0.908-1.778,1.589-2.901,2.043
					c-1.124,0.454-2.367,0.681-3.728,0.681c-1.73,0-3.08-0.238-4.052-0.713c-0.973-0.475-1.459-1.2-1.459-2.172
					c0-0.454,0.102-0.892,0.308-1.313c0.205-0.422,0.448-0.74,0.73-0.957c0.583,0.26,1.194,0.459,1.832,0.6
					C196.346,363.661,196.935,363.731,197.476,363.731z M199.55,356.631c0.411,0,0.827-0.086,1.249-0.259
					c0.421-0.173,0.772-0.411,1.053-0.714v-0.389c-0.022-1.232-0.238-2.129-0.648-2.691c-0.411-0.562-1.016-0.843-1.816-0.843
					c-0.714,0-1.27,0.222-1.669,0.665c-0.4,0.443-0.6,1.043-0.6,1.799c0,0.735,0.226,1.324,0.681,1.767
					C198.253,356.41,198.837,356.631,199.55,356.631z"/>
			</g>
			<polygon style="fill:#EF5A29;" points="204.823,339.534 179.1,317.673 179.1,339.534 			"/>
		</g>
		<g style="clip-path:url(#SVGID_00000006670438628878471390000010740213092130931079_);">
			<path style="fill:#F9AE40;" d="M449.114,87.774H343.026c-2.671,0-4.836,2.165-4.836,4.836v38.833v4.504v18.718l27.725-18.718
				h83.198c2.671,0,4.836-2.165,4.836-4.836v-38.5C453.949,89.939,451.784,87.774,449.114,87.774z"/>
			<g>
				<rect x="343.872" y="94.097" style="fill:#EF5A29;" width="34.874" height="34.874"/>
				<g>
					<path style="fill:#FFFFFF;" d="M361.309,113.722c3.311,0,5.996-2.685,5.996-5.996c0-3.312-2.685-5.996-5.996-5.996
						c-3.312,0-5.996,2.684-5.996,5.996C355.313,111.037,357.997,113.722,361.309,113.722z"/>
					<path style="fill:#FFFFFF;" d="M361.309,114.524c-6.315,0-11.434,5.119-11.434,11.434v3.012h22.868v-3.012
						C372.742,119.643,367.624,114.524,361.309,114.524z"/>
				</g>
			</g>
			<path style="fill:#FFCA85;" d="M409.513,95.93h-21.342c-2.407,0-4.358,1.951-4.358,4.358c0,2.407,1.951,4.358,4.358,4.358h21.342
				c2.407,0,4.358-1.951,4.358-4.358C413.871,97.881,411.92,95.93,409.513,95.93z"/>
			<path style="fill:#E09532;" d="M442.122,115.162h-53.951c-2.407,0-4.358,1.951-4.358,4.358c0,2.407,1.951,4.358,4.358,4.358
				h53.951c2.407,0,4.358-1.951,4.358-4.358C446.48,117.114,444.529,115.162,442.122,115.162z"/>
		</g>
		<g style="clip-path:url(#SVGID_00000006670438628878471390000010740213092130931079_);">
			<path style="fill:#4C2A4B;" d="M359.673,395.987h-80.853c-3.536,0-6.403,2.867-6.403,6.403v35.748
				c0,3.537,2.867,6.403,6.403,6.403h80.853c3.536,0,6.403-2.867,6.403-6.403v-35.748
				C366.076,398.854,363.209,395.987,359.673,395.987z"/>
			<path style="fill:#64CAED;" d="M299.81,402.488c-9.992,0-18.092,8.1-18.092,18.092s8.1,18.092,18.092,18.092
				s18.092-8.1,18.092-18.092H299.81V402.488z"/>
			<path style="fill:#FFFFFF;" d="M303.59,402.488v14.313h14.313C317.902,408.896,311.494,402.488,303.59,402.488z"/>
			<path style="fill:#8C528E;" d="M340.723,403.95h-14.464c-1.792,0-3.244,1.452-3.244,3.244l0,0c0,1.792,1.452,3.244,3.244,3.244
				h14.464c1.792,0,3.244-1.452,3.244-3.244l0,0C343.967,405.403,342.515,403.95,340.723,403.95z"/>
			<path style="fill:#8C528E;" d="M353.552,416.231h-27.293c-1.792,0-3.244,1.452-3.244,3.244l0,0c0,1.792,1.452,3.244,3.244,3.244
				h27.293c1.792,0,3.244-1.452,3.244-3.244l0,0C356.796,417.683,355.344,416.231,353.552,416.231z"/>
			<path style="fill:#8C528E;" d="M353.552,428.511h-27.293c-1.792,0-3.244,1.452-3.244,3.244v0c0,1.792,1.452,3.244,3.244,3.244
				h27.293c1.792,0,3.244-1.452,3.244-3.244v0C356.796,429.964,355.344,428.511,353.552,428.511z"/>
			<path style="fill:#4C2A4B;" d="M366.076,402.391v-25.116c0,0-26.883,19.951-25.99,20.501
				C340.978,398.325,366.076,402.391,366.076,402.391z"/>
		</g>
		<path style="clip-path:url(#SVGID_00000006670438628878471390000010740213092130931079_);fill:#64CAED;" d="M450.193,183.477
			h-4.764v-4.764c0-1.353-1.097-2.45-2.45-2.45c-1.353,0-2.45,1.097-2.45,2.45v4.764h-4.763c-1.353,0-2.45,1.097-2.45,2.45
			s1.097,2.45,2.45,2.45h4.763v4.763c0,1.353,1.097,2.45,2.45,2.45c1.353,0,2.45-1.097,2.45-2.45v-4.763h4.764
			c1.353,0,2.45-1.097,2.45-2.45S451.547,183.477,450.193,183.477z"/>
		<path style="clip-path:url(#SVGID_00000006670438628878471390000010740213092130931079_);fill:#EF5A29;" d="M266.877,68.106
			h-4.764v-4.764c0-1.353-1.097-2.45-2.45-2.45c-1.353,0-2.45,1.097-2.45,2.45v4.764h-4.764c-1.353,0-2.45,1.097-2.45,2.45
			c0,1.353,1.097,2.45,2.45,2.45h4.764v4.764c0,1.353,1.097,2.45,2.45,2.45c1.353,0,2.45-1.097,2.45-2.45v-4.764h4.764
			c1.353,0,2.45-1.097,2.45-2.45C269.327,69.203,268.23,68.106,266.877,68.106z"/>
		<path style="clip-path:url(#SVGID_00000006670438628878471390000010740213092130931079_);fill:#4C2A4B;" d="M73.007,227.131
			h-4.763v-4.764c0-1.353-1.097-2.45-2.45-2.45c-1.353,0-2.45,1.097-2.45,2.45v4.764h-4.764c-1.353,0-2.45,1.097-2.45,2.45
			c0,1.353,1.097,2.45,2.45,2.45h4.764v4.763c0,1.353,1.097,2.45,2.45,2.45c1.353,0,2.45-1.097,2.45-2.45v-4.763h4.763
			c1.353,0,2.45-1.097,2.45-2.45C75.457,228.228,74.36,227.131,73.007,227.131z"/>
		<path style="clip-path:url(#SVGID_00000006670438628878471390000010740213092130931079_);fill:#EF5A29;" d="M397.382,407.194
			h-4.764v-4.763c0-1.353-1.097-2.45-2.45-2.45c-1.353,0-2.45,1.097-2.45,2.45v4.763h-4.763c-1.353,0-2.45,1.097-2.45,2.45
			c0,1.353,1.097,2.45,2.45,2.45h4.763v4.764c0,1.353,1.097,2.45,2.45,2.45c1.353,0,2.45-1.097,2.45-2.45v-4.764h4.764
			c1.353,0,2.45-1.097,2.45-2.45C399.832,408.291,398.735,407.194,397.382,407.194z"/>
		<path style="clip-path:url(#SVGID_00000006670438628878471390000010740213092130931079_);fill:#FFFFFF;" d="M248.216,332.188
			h-4.764v-4.763c0-1.353-1.097-2.45-2.45-2.45c-1.353,0-2.45,1.097-2.45,2.45v4.763h-4.764c-1.353,0-2.45,1.097-2.45,2.45
			c0,1.353,1.097,2.45,2.45,2.45h4.764v4.764c0,1.353,1.097,2.45,2.45,2.45c1.353,0,2.45-1.097,2.45-2.45v-4.764h4.764
			c1.353,0,2.45-1.097,2.45-2.45C250.666,333.285,249.569,332.188,248.216,332.188z"/>
		<g style="clip-path:url(#SVGID_00000006670438628878471390000010740213092130931079_);">
			<path style="fill:#8ED7FF;" d="M120.32,88.84c-5.03,0-9.123-4.093-9.123-9.123c0-5.03,4.093-9.123,9.123-9.123
				c5.03,0,9.123,4.093,9.123,9.123C129.443,84.747,125.35,88.84,120.32,88.84z M120.32,74.594c-2.825,0-5.123,2.298-5.123,5.123
				s2.298,5.123,5.123,5.123c2.825,0,5.123-2.298,5.123-5.123S123.145,74.594,120.32,74.594z"/>
		</g>
		<g style="clip-path:url(#SVGID_00000006670438628878471390000010740213092130931079_);">
			<path style="fill:#4C2A4B;" d="M442.439,276.478c-5.03,0-9.123-4.093-9.123-9.123c0-5.03,4.093-9.123,9.123-9.123
				c5.03,0,9.123,4.093,9.123,9.123C451.562,272.386,447.469,276.478,442.439,276.478z M442.439,262.232
				c-2.825,0-5.123,2.298-5.123,5.123s2.298,5.123,5.123,5.123c2.825,0,5.123-2.298,5.123-5.123S445.264,262.232,442.439,262.232z"
				/>
		</g>
		<g style="clip-path:url(#SVGID_00000006670438628878471390000010740213092130931079_);">
			<path style="fill:#64CAED;" d="M262.427,386.797c-5.03,0-9.123-4.093-9.123-9.123c0-5.03,4.093-9.123,9.123-9.123
				s9.123,4.093,9.123,9.123C271.55,382.704,267.457,386.797,262.427,386.797z M262.427,372.551c-2.825,0-5.123,2.298-5.123,5.123
				c0,2.825,2.298,5.123,5.123,5.123s5.123-2.298,5.123-5.123C267.55,374.849,265.252,372.551,262.427,372.551z"/>
		</g>
		<g style="clip-path:url(#SVGID_00000006670438628878471390000010740213092130931079_);">
			<path style="fill:#EF5A29;" d="M121.471,122.717H72.745c-2.79,0-5.052,2.262-5.052,5.052v48.726c0,2.79,2.262,5.052,5.052,5.052
				h48.726c2.79,0,5.052-2.262,5.052-5.052v-48.726C126.524,124.979,124.262,122.717,121.471,122.717z"/>
			<g>
				<path style="fill:#FFFFFF;" d="M113.883,129.106L113.883,129.106c1.401,0,2.537,1.136,2.537,2.537v38.524
					c0,1.401-1.136,2.537-2.537,2.537l0,0c-1.401,0-2.537-1.136-2.537-2.537v-38.524
					C111.346,130.242,112.482,129.106,113.883,129.106z"/>
				<path style="fill:#FFFFFF;" d="M109.976,169.883v-18.979v-18.979c-9.118,16.045-20.248,9.682-20.248,9.682v9.297v9.297
					C89.728,160.202,100.858,153.838,109.976,169.883z"/>
				<path style="fill:#FFFFFF;" d="M88.132,141.401h-7.495c-2.659,0-4.815,2.156-4.815,4.815v9.378c0,2.659,2.156,4.815,4.815,4.815
					h7.495V141.401z"/>
				<path style="fill:#FFFFFF;" d="M88.132,170.983v-6.879c0-1.389-1.126-2.514-2.514-2.514c-1.388,0-2.514,1.126-2.514,2.514v6.879
					c0,1.389,1.126,2.514,2.514,2.514C87.007,173.497,88.132,172.371,88.132,170.983z"/>
			</g>
			<polygon style="fill:#EF5A29;" points="122.821,122.717 140.307,122.717 122.821,144.851 			"/>
		</g>
		<g style="clip-path:url(#SVGID_00000006670438628878471390000010740213092130931079_);">
			<path style="fill:#8ED7FF;" d="M230.525,399.639h-38.766c-2.633,0-4.768,2.135-4.768,4.768v32.936
				c0,2.633,2.135,4.768,4.768,4.768h38.766c2.633,0,4.768-2.135,4.768-4.768v-32.936
				C235.293,401.774,233.159,399.639,230.525,399.639z"/>
			<g>
				<path style="fill:#FFFFFF;" d="M209.683,427.717c-0.876,0-1.691-0.127-2.444-0.382c-0.754-0.255-1.405-0.636-1.955-1.146
					c-0.55-0.509-0.983-1.14-1.298-1.894c-0.316-0.753-0.474-1.619-0.474-2.597c0-1.222,0.203-2.296,0.611-3.223
					c0.407-0.927,0.962-1.706,1.665-2.337c0.703-0.631,1.517-1.11,2.444-1.436c0.926-0.325,1.919-0.489,2.979-0.489
					c0.977,0,1.904,0.122,2.78,0.367c0.875,0.244,1.639,0.601,2.291,1.069c0.794,0.55,1.191,1.233,1.191,2.047
					c0,0.061,0,0.153,0,0.275c0,0.122-0.01,0.235-0.03,0.336l-0.642,5.499c0.081,0.041,0.203,0.072,0.367,0.092
					c0.163,0.021,0.295,0.031,0.397,0.031c0.917,0,1.639-0.432,2.169-1.298c0.53-0.866,0.794-1.991,0.794-3.376
					c0-1.161-0.235-2.225-0.703-3.192c-0.469-0.967-1.115-1.797-1.94-2.49c-0.825-0.692-1.813-1.232-2.963-1.619
					c-1.151-0.387-2.408-0.581-3.773-0.581c-1.588,0-3.045,0.255-4.368,0.764c-1.324,0.509-2.459,1.217-3.406,2.123
					c-0.947,0.907-1.68,1.976-2.2,3.208c-0.519,1.233-0.779,2.571-0.779,4.017c0,1.405,0.229,2.668,0.687,3.788
					c0.458,1.12,1.094,2.077,1.909,2.871c0.814,0.794,1.776,1.4,2.887,1.818c1.11,0.417,2.326,0.626,3.65,0.626
					c0.916,0,1.665-0.041,2.246-0.122c0.58-0.082,1.094-0.153,1.542-0.214c0.142,0.224,0.27,0.499,0.382,0.825
					c0.112,0.326,0.168,0.631,0.168,0.917c0,0.428-0.072,0.804-0.214,1.13c-0.142,0.325-0.392,0.6-0.748,0.825
					c-0.357,0.224-0.84,0.397-1.451,0.519c-0.611,0.122-1.375,0.183-2.291,0.183c-1.569,0-3.162-0.245-4.781-0.733
					c-1.619-0.489-3.091-1.258-4.415-2.307c-1.324-1.049-2.403-2.408-3.238-4.078c-0.835-1.67-1.253-3.686-1.253-6.049
					c0-2.158,0.402-4.109,1.207-5.85c0.804-1.741,1.909-3.212,3.315-4.414c1.405-1.202,3.06-2.128,4.964-2.78
					c1.904-0.651,3.956-0.977,6.156-0.977c2.097,0,4.022,0.28,5.773,0.84c1.751,0.56,3.258,1.349,4.521,2.368
					c1.262,1.019,2.245,2.261,2.948,3.727c0.703,1.466,1.054,3.096,1.054,4.888c0,2.729-0.682,4.842-2.047,6.339
					c-1.364,1.497-3.299,2.245-5.804,2.245c-0.611,0-1.288-0.087-2.031-0.26c-0.744-0.172-1.41-0.443-2.001-0.809
					c-0.428,0.245-0.963,0.458-1.604,0.641C211.287,427.625,210.538,427.717,209.683,427.717z M212.586,418.583
					c-0.122-0.081-0.296-0.153-0.519-0.214c-0.224-0.061-0.519-0.092-0.886-0.092c-0.326,0-0.642,0.066-0.947,0.199
					c-0.306,0.133-0.576,0.336-0.809,0.611c-0.234,0.275-0.423,0.626-0.565,1.054c-0.143,0.428-0.214,0.937-0.214,1.527
					c0,0.672,0.163,1.197,0.489,1.573c0.326,0.377,0.815,0.565,1.467,0.565c0.367,0,0.662-0.046,0.886-0.137
					c0.224-0.092,0.437-0.199,0.641-0.321L212.586,418.583z"/>
			</g>
			<polygon style="fill:#8ED7FF;" points="235.293,404.407 235.293,386.839 213.012,399.639 			"/>
		</g>
	</g>
</g>
</svg>
