<?xml version="1.0" encoding="utf-8"?>
<!-- Generator: Adobe Illustrator 27.5.0, SVG Export Plug-In . SVG Version: 6.00 Build 0)  -->
<svg version="1.1" xmlns="http://www.w3.org/2000/svg" xmlns:xlink="http://www.w3.org/1999/xlink" x="0px" y="0px"
	 viewBox="0 0 500 500" style="enable-background:new 0 0 500 500;" xml:space="preserve">
<g id="BACKGROUND">
	<rect style="fill:#FFFFFF;" width="500" height="500"/>
</g>
<g id="OBJECTS">
	<ellipse style="fill:#DAF2EE;" cx="276.107" cy="448.516" rx="171.911" ry="37.09"/>
	<g>
		<g>
			<path style="fill:#A8EFE7;" d="M207.904,271.946c-0.782,4.862-5.751,8.274-10.452,8.489c-4.601,0.215-9.187-2.96-10.099-7.576
				c-0.736-3.696,0.46-8.703,3.666-11.058c0.782-0.782,1.725-1.411,2.761-1.833c2.423-0.982,5.099-0.675,7.431,0.422
				C205.427,262.369,208.663,267.2,207.904,271.946z"/>
			<path style="fill:#A8EFE7;" d="M184.194,254.194c0.399,3.727-0.575,7.615-2.853,10.613c-2.416,3.167-6.096,5.682-9.884,6.894
				c-7.293,2.331-15.291-1.687-18.626-8.404c-2.4-4.831-2.5-10.559-0.468-15.459c0.529-1.495,1.35-2.891,2.393-4.11
				c0.092-0.115,0.176-0.245,0.276-0.36c0.084-0.107,0.176-0.184,0.276-0.245c0.636-0.659,1.334-1.258,2.093-1.779
				c3.643-2.515,8.397-3.044,12.653-2.147C177.338,240.736,183.388,246.687,184.194,254.194z"/>
			<path style="fill:#A8EFE7;" d="M290.37,145.74c-4.54,9.24-13.87,15.96-24.09,17.14c2.27,4.42,2.96,9.5,2.29,14.44
				c-1.47,10.69-8.79,19.73-18.93,23.34c-10.6,3.79-22.75,1.7-32.34-3.95c-0.46,4.18-2.02,8.19-4.44,11.65
				c-5.44,7.72-14.27,12.38-23.71,12.55c-9.48,0.17-18.71-3.76-25.84-9.9c-3.47,5.6-8.13,10.42-13.63,14.08
				c-10.33,6.88-23.63,9.25-35.33,4.56c-10.72-4.29-19.63-13.61-21.81-25.12c-8.01,0-15.93-2.44-22.7-6.7
				c-12.71-7.98-20.9-21.95-20.3-37.09c0.56-13.86,7.77-27.35,19.36-35.03c-3.96-3.72-6.52-8.76-7.51-14.1
				c-2.09-11.28,1.99-22.85,10.53-30.45c8.76-7.8,20.65-11.27,32.24-11.4c-2.94-5.55-4.11-11.98-3.55-18.23
				c1.17-13.02,9.42-24.69,22.17-28.5c11.53-3.45,25.01-0.44,33.55,8.12c1.08,0.95,2.06,2.01,2.91,3.17
				c3.82-5.71,9.13-10.38,15.21-13.59c13.05-6.88,29.12-6.99,41.61,1.23c11.86,7.8,19.67,21.65,19.5,35.9
				c4.96-1.57,10.26-1.83,15.39-0.96c10.52,1.78,19.9,8.6,24.15,18.46c4.05,9.39,3.69,20.57-1.32,29.5c5.21,2.02,9.7,5.53,13.1,9.99
				C293.62,123.71,295.33,135.64,290.37,145.74z"/>
		</g>
		<g>
			<g>
				<g>
					<defs>
						<path id="SVGID_1_" d="M240.253,134.114c-4.239-28.431-8.517-56.863-12.757-85.256c18.75,21.08,38.996,40.802,60.533,58.986
							C276.578,122.619,258.84,132.355,240.253,134.114z"/>
					</defs>
					<clipPath id="SVGID_00000010293048537996030780000014440101595094129537_">
						<use xlink:href="#SVGID_1_"  style="overflow:visible;"/>
					</clipPath>
					<path style="clip-path:url(#SVGID_00000010293048537996030780000014440101595094129537_);fill:#FF7373;" d="M240.253,134.114
						c-4.239-28.431-8.517-56.863-12.757-85.256c18.75,21.08,38.996,40.802,60.533,58.986
						C276.578,122.619,258.84,132.355,240.253,134.114z"/>
					<path style="clip-path:url(#SVGID_00000010293048537996030780000014440101595094129537_);fill:#ED4A4A;" d="M290.315,108.678
						c-14.332,12.397-33.424,18.535-52.292,16.927c-2.13-0.182-2.236,3.132-0.114,3.313c19.733,1.681,39.699-4.868,54.668-17.816
						C294.19,109.704,291.927,107.284,290.315,108.678z"/>
					<path style="clip-path:url(#SVGID_00000010293048537996030780000014440101595094129537_);fill:#ED4A4A;" d="M277.093,96.227
						c-13.124,7.133-28.049,10.348-42.946,9.268c-2.132-0.155-2.241,3.158-0.115,3.312c15.434,1.119,31.002-2.253,44.597-9.642
						C280.504,98.145,278.968,95.207,277.093,96.227z"/>
					<path style="clip-path:url(#SVGID_00000010293048537996030780000014440101595094129537_);fill:#ED4A4A;" d="M263.646,83.694
						c-9.768,5.254-21.221,7.145-32.15,5.15c-2.075-0.379-3.053,2.792-0.951,3.175c11.796,2.153,24.062,0.301,34.637-5.388
						C267.063,85.62,265.526,82.683,263.646,83.694z"/>
					<path style="clip-path:url(#SVGID_00000010293048537996030780000014440101595094129537_);fill:#ED4A4A;" d="M251.883,73.366
						c-0.636-0.022-1.3,0.383-1.578,0.967c-0.175,0.049-0.369,0.106-0.392,0.112c-0.357,0.094-0.715,0.185-1.074,0.271
						c-0.762,0.184-1.529,0.352-2.298,0.503c-1.585,0.311-3.183,0.549-4.789,0.716c-3.116,0.324-6.269,0.322-9.39,0.082
						c-2.132-0.164-2.239,3.149-0.115,3.312c3.78,0.29,7.573,0.183,11.335-0.286c1.831-0.228,3.651-0.55,5.449-0.965
						c1.633-0.377,4.531-0.75,4.452-2.998C253.451,74.185,252.821,73.398,251.883,73.366z"/>
					<path style="clip-path:url(#SVGID_00000010293048537996030780000014440101595094129537_);fill:#ED4A4A;" d="M243.748,65.135
						c-1.066,0.292-2.147,0.52-3.242,0.676c-0.267,0.038-0.534,0.072-0.802,0.101c-0.087,0.01-0.366,0.038-0.141,0.017
						c-0.134,0.012-0.268,0.023-0.403,0.033c-0.564,0.041-1.13,0.065-1.696,0.07c-1.078,0.01-2.156-0.048-3.227-0.171
						c-0.268-0.031-0.535-0.066-0.801-0.105c-0.005-0.001-0.506-0.083-0.22-0.034c-0.133-0.023-0.265-0.047-0.398-0.072
						c-0.556-0.105-1.108-0.23-1.656-0.37c-0.839-0.214-1.838,0.22-2.063,1.112c-0.212,0.841,0.214,1.834,1.112,2.063
						c4.667,1.191,9.615,1.186,14.266-0.087c0.836-0.229,1.493-1.091,1.252-1.982C245.503,65.553,244.641,64.891,243.748,65.135z"/>
					<path style="clip-path:url(#SVGID_00000010293048537996030780000014440101595094129537_);fill:#ED4A4A;" d="M234.108,55.396
						c-0.152,0.071-0.308,0.131-0.463,0.194c-0.675,0.236-1.374,0.385-2.084,0.467c-0.7,0.045-1.401,0.038-2.095-0.069
						c0.058,0.009,0.117,0.019,0.175,0.029c-0.431-0.076-0.817-0.091-1.222,0.121c-0.365,0.191-0.717,0.587-0.82,0.993
						c-0.103,0.408-0.099,0.869,0.119,1.244c0.21,0.36,0.564,0.742,0.993,0.82c1.249,0.226,2.444,0.267,3.705,0.107
						c1.116-0.141,2.209-0.491,3.227-0.967c0.786-0.368,1.137-1.487,0.701-2.237C235.877,55.291,234.949,55.002,234.108,55.396z"/>
				</g>
				<path style="fill:#4E3275;" d="M246.294,41.048c0.526,1.287-0.536,2.563-1.33,3.465c-1.019,1.17-2.296,2.114-3.668,2.824
					c-1.848,0.964-3.867,1.469-5.916,1.718c1.896,1.349,3.735,2.79,5.323,4.492c1.242,1.331,5.002,5.514,2.397,7.194
					c-1.127,0.728-2.916,0.268-4.102-0.107c-1.323-0.419-2.569-1.072-3.76-1.777c-2.371-1.4-4.617-3.002-6.745-4.743
					c-0.17,2.222-0.1,4.447-0.216,6.676c-0.071,1.33-0.22,2.668-0.521,3.975c-0.307,1.342-0.73,3.048-2.104,3.665
					c-1.684,0.763-2.666-0.687-3.199-2.063c-0.519-1.351-0.904-2.731-1.155-4.151c-0.433-2.41-0.521-4.857-0.47-7.309
					c-1.226,0.622-2.555,1.062-3.905,1.286c-1.37,0.223-4.705,0.816-5.024-1.187c-0.15-0.935,0.511-1.684,1.108-2.308
					c0.75-0.785,1.595-1.469,2.496-2.082c1.199-0.814,2.519-1.447,3.901-1.881c-1.652-1.292-3.298-2.627-4.751-4.113
					c-1.358-1.394-3.757-4.403-1.399-6.043c1.854-1.293,4.892-0.401,6.768,0.406c1.11,0.476,2.161,1.073,3.14,1.776
					c0.586,0.414,1.133,0.939,1.738,1.363c0.224-2.776,0.419-5.582,0.981-8.312c0.307-1.484,0.767-2.978,1.742-4.164
					c0.795-0.961,2.036-1.71,3.261-1.009c1.104,0.633,1.491,1.955,1.711,3.128c0.274,1.455,0.414,2.95,0.427,4.441
					c0.016,2.228-0.292,4.455-0.878,6.609c2.164-0.717,4.284-1.583,6.484-2.22c1.337-0.391,2.699-0.684,4.09-0.803
					C244.001,39.68,245.714,39.611,246.294,41.048z"/>
			</g>
			<g>
				
					<rect x="84.968" y="149.771" transform="matrix(0.278 -0.9606 0.9606 0.278 -88.3844 227.945)" style="fill:#FFFFFF;" width="44.958" height="45.998"/>
				
					<rect x="87.111" y="152.197" transform="matrix(0.278 -0.9606 0.9606 0.278 -88.1467 227.6714)" style="fill:#371E5B;" width="40.547" height="40.555"/>
				<path style="fill:#4E3275;" d="M91.423,154.688c6.117,4.345,9.679,11.089,10.896,18.475c0.727,4.404,0.565,8.808,0.868,13.24
					c0.077,1.11,0.386,4.031,1.181,6.305l-8.682-2.513c-0.238-1.331-0.396-2.648-0.476-3.891
					c-0.548-8.206-0.164-17.337-6.196-23.294L91.423,154.688z"/>
				<path style="fill:#4E3275;" d="M105.267,150.756l11.455,3.316c0.601,1.395,1.119,2.848,1.555,4.353
					c1.707,5.867,2.105,11.978,3.135,17.973c0.446,2.62,0.941,5.355,2.091,7.78c0.245,0.503,0.605,1.18,1.06,1.876l-2.584,8.927
					c-6.253-4.592-8.058-14.482-9.067-21.783C111.785,165.075,110.375,156.462,105.267,150.756z"/>
			</g>
			<g>
				
					<rect x="128.238" y="93.057" transform="matrix(0.8423 -0.5391 0.5391 0.8423 -39.9338 101.408)" style="fill:#FFFFFF;" width="50.151" height="51.769"/>
				
					<rect x="130.739" y="95.834" transform="matrix(0.8423 -0.5391 0.5391 0.8423 -39.665 101.3529)" style="fill:#371E5B;" width="45.231" height="45.24"/>
				<path style="fill:#4E3275;" d="M153.044,91.797c1.936,8.142-0.035,16.419-4.445,23.51c-2.629,4.229-6.003,7.804-9.007,11.744
					c-0.752,0.988-2.64,3.666-3.645,6.157l-5.435-8.492c0.779-1.291,1.614-2.512,2.462-3.615
					c5.574-7.286,12.611-14.664,11.931-24.096L153.044,91.797z"/>
				<path style="fill:#4E3275;" d="M167.548,98.678l7.171,11.205c-0.521,1.612-1.156,3.212-1.896,4.795
					c-2.882,6.176-7.042,11.596-10.586,17.382c-1.553,2.526-3.148,5.184-3.967,8.064c-0.164,0.602-0.36,1.435-0.491,2.353
					l-8.731,5.588c-1.869-8.45,3.89-18.073,8.412-24.939C162.488,115.482,167.638,107.221,167.548,98.678z"/>
			</g>
			<g>
				
					<rect x="201.043" y="69.308" transform="matrix(0.9386 0.3449 -0.3449 0.9386 45.66 -71.4077)" style="fill:#FFFFFF;" width="44.958" height="46.632"/>
				
					<rect x="203.652" y="72.01" transform="matrix(0.3449 -0.9386 0.9386 0.3449 60.0769 270.6462)" style="fill:#371E5B;" width="40.555" height="40.547"/>
				<path style="fill:#4E3275;" d="M242.795,77.613c-4.764,5.796-11.743,8.875-19.196,9.57c-4.444,0.415-8.826-0.056-13.268-0.065
					c-1.113-0.001-4.049,0.102-6.372,0.735l3.117-8.483c1.344-0.143,2.669-0.209,3.915-0.202c8.224,0.03,17.306,1.056,23.672-4.543
					L242.795,77.613z"/>
				<path style="fill:#4E3275;" d="M245.744,91.699l-4.113,11.194c-1.434,0.502-2.92,0.916-4.452,1.245
					c-5.972,1.29-12.097,1.258-18.149,1.864c-2.645,0.26-5.408,0.563-7.908,1.539c-0.519,0.209-1.22,0.521-1.946,0.925l-8.723-3.205
					c5.02-5.915,15.012-7.019,22.366-7.512C231.002,97.194,239.693,96.393,245.744,91.699z"/>
			</g>
			<path style="fill:#FF7373;" d="M189.279,81.121c-0.146,1.231-0.673,2.469-1.479,3.688c-0.135,0.198-0.271,0.395-0.42,0.596
				c-5.52,7.472-20.926,14.078-20.926,14.078c-16.648-14.289-14.732-24.739-14.732-24.739l0.025,0.005
				c0.021-0.219,0.055-0.435,0.097-0.657c1.035-5.515,6.345-9.146,11.86-8.111c3.761,0.706,6.64,3.39,7.768,6.775
				c2.279-2.745,5.935-4.202,9.696-3.496C186.684,70.296,190.314,75.605,189.279,81.121z"/>
			<path style="fill:#FF7373;" d="M117.686,132.4c0.451,0.964,0.626,2.107,0.59,3.361c-0.009,0.205-0.019,0.411-0.037,0.625
				c-0.646,7.951-8.897,19.744-8.897,19.744c-18.616-2.892-21.947-11.384-21.947-11.384l0.021-0.008
				c-0.083-0.169-0.156-0.343-0.226-0.523c-1.741-4.493,0.49-9.546,4.983-11.286c3.064-1.187,6.379-0.531,8.734,1.428
				c0.42-3.034,2.429-5.752,5.493-6.939C110.892,125.676,115.945,127.908,117.686,132.4z"/>
			<g>
				<path style="fill:#FF7373;" d="M124.563,85.09v23.207c0,3.254-2.666,5.912-5.911,5.912l0.596,10.126l-16.062-10.126H81.229
					c-3.254,0-5.911-2.658-5.911-5.912V85.09c0-3.254,2.658-5.911,5.911-5.911h37.423C121.897,79.179,124.563,81.836,124.563,85.09z
					"/>
				<path style="fill:#FFFFFF;" d="M89.612,95.744c0,2.672-2.166,4.837-4.837,4.837s-4.837-2.166-4.837-4.837
					s2.166-4.837,4.837-4.837S89.612,93.072,89.612,95.744z"/>
				<path style="fill:#FFFFFF;" d="M104.087,95.744c0,2.672-2.166,4.837-4.837,4.837s-4.837-2.166-4.837-4.837
					s2.166-4.837,4.837-4.837S104.087,93.072,104.087,95.744z"/>
				<path style="fill:#FFFFFF;" d="M119.249,95.744c0,2.672-2.166,4.837-4.837,4.837c-2.672,0-4.837-2.166-4.837-4.837
					s2.166-4.837,4.837-4.837C117.084,90.906,119.249,93.072,119.249,95.744z"/>
			</g>
		</g>
	</g>
	<g>
		<g>
			<path style="fill:#4E3275;" d="M415.595,266.784c-13.562,7.05-30.874,5.513-44.455-0.715c-6.57-3.006-12.543-7.579-16.391-13.777
				c-3.496-5.64-5.141-12.396-3.995-18.957c-10.144-1.488-20.249-3.838-29.65-8.029c-6.482-2.889-12.573-6.747-17.645-11.721
				c-0.92-0.872-1.802-1.802-2.644-2.771c-0.48-0.529-0.93-1.077-1.371-1.635c-0.078-0.088-0.167-0.186-0.245-0.284
				c-6.061-7.745-9.439-17.283-10.242-27.045c-0.911-11.045,0.068-22.13,4.906-31.823c2.37-6.09,7.168-11.554,11.691-16.303
				c10.125-10.634,26.604-14.394,40.822-12.563c7.021,0.911,13.807,3.378,19.358,7.833c5.199,4.171,8.94,9.821,12.397,15.432
				c3.486,5.669,6.786,11.564,11.388,16.431c4.651,4.915,10.575,7.882,16.636,10.683c5.826,2.693,11.887,5.385,16.489,9.988
				c4.651,4.651,7.05,10.947,7.109,17.488c0.029,3.368-0.529,6.776-1.616,9.958c-0.519,1.518-1.156,3.016-1.91,4.436
				c-0.832,1.567-2.056,2.928-2.83,4.514c-0.304,0.627-0.274,1.087-0.059,1.479c0.264,0.49,0.813,0.862,1.341,1.292
				c0.587,0.47,1.146,0.979,1.674,1.518c1.077,1.077,2.037,2.282,2.869,3.555c1.763,2.683,2.967,5.758,3.584,8.911
				C435.443,248.131,427.326,260.674,415.595,266.784z"/>
			<path style="fill:#371E5B;" d="M415.595,266.784c-13.562,7.05-30.874,5.513-44.455-0.715c-6.57-3.006-12.543-7.579-16.391-13.777
				c-3.496-5.64-5.141-12.396-3.995-18.957c-10.144-1.488-20.249-3.838-29.65-8.029c-6.482-2.889-12.573-6.747-17.645-11.721
				c-0.862-5.523-1.048-11.133-0.274-16.617c0.411-6.061,1.87-12.416,5.229-17.351c3.848-5.64,10.409-8.46,17.057-8.999
				c7.05-0.578,14.022,1.518,19.779,5.572c5.376,3.809,9.665,8.862,14.022,13.738c4.769,5.337,9.841,10.223,15.902,14.081
				c6.355,4.054,13.376,6.835,20.592,8.93c7.314,2.115,14.786,3.594,22.208,5.268c1.743,0.392,3.555,0.774,5.366,1.195
				c0.264,0.49,0.813,0.862,1.341,1.292c0.587,0.47,1.146,0.979,1.674,1.518c1.077,1.077,2.037,2.282,2.869,3.555
				c1.763,2.683,2.967,5.758,3.584,8.911C435.443,248.131,427.326,260.674,415.595,266.784z"/>
			<path style="fill:#371E5B;" d="M349.067,169.32c-5.728-4.22-10.872-9.222-15.29-14.797c-4.417-5.574-8.098-11.74-10.922-18.266
				c-1.604-3.705-2.914-7.536-3.935-11.442c-0.159-0.609-1.104-0.351-0.944,0.26c1.829,6.995,4.608,13.738,8.218,20.003
				c3.608,6.262,8.042,12.059,13.154,17.169c2.87,2.869,5.957,5.512,9.224,7.919C349.081,170.539,349.57,169.69,349.067,169.32z"/>
			<path style="fill:#371E5B;" d="M352.96,167.769c-7.456-11.231-13.003-23.693-16.35-36.752c-0.946-3.691-1.713-7.426-2.306-11.19
				c-0.098-0.621-1.042-0.357-0.944,0.26c2.111,13.395,6.491,26.415,12.89,38.371c1.798,3.359,3.758,6.63,5.865,9.805
				C352.461,168.786,353.31,168.296,352.96,167.769z"/>
			<path style="fill:#371E5B;" d="M355.842,167.781c-3.193-11.83-4.734-24.084-4.557-36.336c0.049-3.423,0.235-6.842,0.548-10.251
				c0.058-0.627-0.922-0.623-0.979,0c-1.122,12.21-0.544,24.559,1.707,36.612c0.643,3.441,1.425,6.855,2.337,10.235
				C355.062,168.649,356.007,168.391,355.842,167.781z"/>
		</g>
		<g>
			<path style="fill:#F9CFAA;" d="M359.008,174.418c-0.323,3.231-1.782,6.296-3.878,8.773c-2.046,2.409-4.661,4.279-7.501,5.64
				c3.173,11.241,3.368,23.177,6.492,34.438c-10.644,0.372-21.297,0.744-31.931,1.126l0.02,0.039l-8.352,0.245l3.035-14.12
				c-2.311,0.421-4.661,0.627-7.031,0.597c-3.202-0.049-6.6-0.636-8.999-2.742c-0.069-0.049-0.127-0.108-0.196-0.166
				c-2.33-2.174-3.202-5.454-3.789-8.588c-3.476-18.457-0.45-38.071,8.421-54.619c1.038-1.949,2.174-3.878,3.701-5.474l-0.01-0.01
				c0.362-0.382,0.744-0.734,1.126-1.058c3.505,8.059,8.93,15.285,15.696,20.896c6.815,5.66,14.982,9.674,23.618,11.613
				c0.901-1.067,1.978-2.027,3.28-2.556c1.381-0.568,3.055-0.578,4.308,0.255C358.783,169.884,359.214,172.313,359.008,174.418z"/>
			<path style="fill:#D8954C;" d="M313.859,224.678c-0.225,0,1.958-9.635,3.036-14.12c8.02-1.41,15.647-5.199,22.629-9.537
				c-5.924,7.765-12.083,16.039-18.497,23.412C318.637,224.512,316.248,224.59,313.859,224.678z"/>
		</g>
		<g>
			<path style="fill:#FFFFFF;" d="M197.679,440.725c-0.852,0-1.714-0.01-2.565-0.02c-1.596-0.02-3.221-0.078-4.7-0.676
				c-3.231-1.293-4.965-4.798-6.012-8.127c-1.743-5.542-2.379-11.437-1.87-17.224c3.829,2.125,7.716,4.191,11.417,6.521
				C192.832,427.878,194.202,434.928,197.679,440.725z"/>
			<path style="fill:#ED4A4A;" d="M220.875,438.473l0.039,0.47c-7.687,1.175-15.461,1.772-23.236,1.782
				c-3.476-5.797-4.847-12.847-3.731-19.525c3.114,1.929,6.09,4.044,8.813,6.512c2.84,2.556,5.366,5.483,8.48,7.706
				C214.041,437.416,217.487,438.826,220.875,438.473z"/>
		</g>
		<g>
			<path style="fill:#4EDDDD;" d="M390.313,437.426c-2.33,3.398-6.091,5.826-10.056,7.099c-5.072,1.625-10.507,1.625-15.823,1.43
				c-9.077-0.353-18.135-1.224-27.104-2.624c-1.792,3.378-4.328,6.384-8.294,7.079c-2.419,0.411-4.661-0.382-6.884-1.263
				c-2.526-0.999-5.023-2.056-7.5-3.182c-4.984-2.262-9.802-4.837-14.58-7.51c-2.428-1.351-4.867-2.683-7.432-3.77
				c-2.536-1.077-5.151-1.978-7.716-2.996c-4.299-1.704-8.499-3.652-12.592-5.787c-1.302-0.568-2.595-1.146-3.897-1.714
				c-0.999,1.087-2.017,2.144-2.996,3.231c-4.553,5.082-8.186,10.986-10.673,17.351c-0.029,0.078-0.059,0.157-0.088,0.235
				c-0.803,2.086-1.557,4.338-3.27,5.777c-1.714,1.449-4.759,1.576-5.885-0.353c-0.245-0.411-0.382-0.891-0.695-1.253
				c-0.95-1.097-2.693-0.539-4.132-0.343c-4.24,0.578-8.333-3.897-7.383-8.068l-0.94-0.186c-0.039,0.176-0.078,0.353-0.098,0.529
				l-0.176-0.029c-0.832,2.526-3.809,4.113-6.365,3.408c-2.565-0.705-4.308-3.584-3.74-6.179c-0.372,0.078-0.744,0.137-1.116,0.166
				c-3.388,0.353-6.835-1.057-9.635-3.055c-3.114-2.223-5.64-5.15-8.48-7.706c-2.722-2.467-5.699-4.582-8.813-6.512
				c-3.701-2.33-7.589-4.396-11.417-6.521c-0.48-0.264-0.95-0.529-1.43-0.793c-7.501-4.191-14.962-8.96-19.975-15.931
				c-5.013-6.962-7.119-16.626-3.202-24.264c3.133-6.11,9.478-9.929,15.912-12.348c13.121-4.925,27.583-5.258,41.498-3.476
				c13.904,1.782,27.456,5.581,41.116,8.744c6.032,1.4,12.093,2.663,18.164,3.839c3.691,0.705,7.393,1.371,11.094,2.007
				c26.565,4.563,53.454,7.373,80.303,10.086c0.117,0.441,0.255,0.871,0.392,1.302c2.497,7.99,6.071,15.618,9.635,23.207
				C380.795,417.177,385.563,427.301,390.313,437.426z"/>
			<path style="fill:#C7FFFC;" d="M260.356,413.435c0.646,0.597,1.165,1.312,1.518,2.135c0.225,0.529,0.392,1.087,0.744,1.537
				c1.009,1.244,2.967,1.028,4.475,0.49c1.518-0.529,3.172-1.243,4.651-0.627c0.499,0.206,0.969,0.627,1.009,1.175
				c0.02,0.382-0.176,0.734-0.382,1.057c-1.107,1.812-2.497,3.427-3.936,4.984c-0.999,1.087-2.017,2.144-2.996,3.231
				c-4.553,5.082-8.186,10.987-10.673,17.351c-0.029,0.078-0.059,0.157-0.088,0.235c-0.803,2.086-1.557,4.338-3.27,5.777
				c-1.714,1.449-4.759,1.577-5.885-0.353c-0.245-0.411-0.382-0.891-0.695-1.253c-0.95-1.097-2.693-0.539-4.132-0.343
				c-4.24,0.578-8.333-3.897-7.383-8.068l-0.94-0.186c2.115-10.908,8.587-20.915,17.704-27.28c0.303-0.215,0.617-0.441,0.93-0.676
				l0.039,0.049C253.766,410.684,257.908,411.173,260.356,413.435z"/>
			<path style="fill:#14B2AE;" d="M295.088,399.355c-12.181,3.251-24.225,7.256-34.732,14.081c-2.448-2.262-6.59-2.751-9.312-0.764
				l-0.039-0.049c2.663-1.978,5.425-4.7,4.142-7.579c-0.891-2.017-3.437-2.742-5.64-2.575c-2.203,0.166-4.338,0.969-6.541,0.979
				c-0.764,0.01-1.586-0.108-2.164-0.607c-1.273-1.097-0.666-3.28-1.527-4.729c-1.224-2.037-4.269-1.459-6.561-2.056
				c-1.616-0.431-2.957-1.527-4.24-2.585c-7.177-5.963-14.365-11.927-21.542-17.88C235.514,386.439,264.704,396.682,295.088,399.355
				z"/>
			<path style="fill:#14B2AE;" d="M236.565,410.569c-3.783,1.917-6.383,5.648-9.076,8.794c-1.55,1.811-3.1,3.621-4.65,5.432
				c-0.413,0.483-0.827,0.966-1.24,1.448c-0.199,0.232-0.639,0.612-0.941,0.968c0.004-0.051,0.001-0.109,0.01-0.156
				c0.763-4.195,2.349-8.433,4.078-12.314c1.786-4.01,3.96-7.832,6.465-11.436c1.082-1.556-1.464-3.026-2.536-1.483
				c-4.504,6.479-7.926,13.712-10.045,21.316c-0.561,2.013-2.4,7.802,1.548,7.823c1.842,0.01,3.068-2.138,4.119-3.366l4.34-5.07
				c0.721-0.842,1.446-1.682,2.166-2.526c-1.975,4.066-3.534,8.332-4.614,12.733c-0.45,1.836,2.382,2.619,2.833,0.781
				c1.848-7.532,5.081-14.6,9.554-20.936C239.486,411.288,237.763,409.962,236.565,410.569z"/>
			<path style="fill:#14B2AE;" d="M363.443,391.044c-23.987-0.487-48.019,1.704-71.522,6.522c-6.612,1.355-13.179,2.924-19.694,4.69
				c-1.823,0.494-1.049,3.329,0.781,2.833c22.909-6.212,46.475-9.885,70.192-10.891c6.744-0.286,13.495-0.353,20.243-0.217
				C365.334,394.02,365.334,391.083,363.443,391.044z"/>
			<path style="fill:#14B2AE;" d="M175.113,370.034c-5.033,4.429-9.418,9.565-13.035,15.21c-1.023,1.596,1.519,3.071,2.536,1.483
				c3.486-5.441,7.724-10.347,12.575-14.615C178.612,370.86,176.527,368.789,175.113,370.034z"/>
			<path style="fill:#14B2AE;" d="M178.063,380.161c-0.572-0.525-1.514-0.597-2.077,0c-2.564,2.717-5.128,5.435-7.693,8.152
				c-0.527,0.559-0.596,1.53,0,2.077c0.572,0.525,1.514,0.597,2.077,0c2.564-2.717,5.128-5.435,7.693-8.152
				C178.591,381.679,178.659,380.708,178.063,380.161z"/>
			<path style="fill:#4EDDDD;" d="M250.538,429.078c-2.878,4.526-5.402,9.265-7.552,14.178c-0.318,0.726-0.213,1.577,0.527,2.009
				c0.623,0.364,1.69,0.204,2.009-0.527c2.15-4.914,4.674-9.652,7.552-14.178C254.092,428.961,251.551,427.486,250.538,429.078z"/>
			<path style="fill:#4EDDDD;" d="M242.345,434.431c-0.829-0.189-1.524,0.252-1.807,1.026c-0.098,0.268-0.2,0.536-0.306,0.801
				c-0.01,0.026-0.04,0.099-0.066,0.167c-0.037,0.092-0.078,0.182-0.118,0.273c-0.223,0.507-0.462,1.007-0.716,1.499
				c-0.501,0.969-1.062,1.904-1.677,2.804c-0.434,0.636-0.141,1.657,0.527,2.01c0.745,0.394,1.546,0.152,2.01-0.527
				c1.324-1.938,2.373-4.043,3.18-6.246C243.636,435.515,243.075,434.597,242.345,434.431z"/>
		</g>
		<g>
			<path style="fill:#D8954C;" d="M355.621,173.534c-0.427-1.214-1.835-1.389-2.86-0.836c-1.141,0.617-2.076,1.8-2.762,2.875
				c-0.742,1.163-1.277,2.492-1.505,3.854c-0.182,1.091-0.206,3.197,1.449,2.972c1.434-0.195,2.418-1.876,2.757-3.14
				c0.163-0.609-0.781-0.869-0.944-0.26c-0.161,0.6-0.432,1.161-0.834,1.639c-0.225,0.267-0.923,1.054-1.344,0.757
				c-0.224-0.158-0.206-0.66-0.208-0.892c-0.004-0.375,0.049-0.745,0.123-1.111c0.119-0.586,0.292-1.163,0.515-1.718
				c0.46-1.141,1.149-2.2,1.999-3.088c0.411-0.429,0.876-0.913,1.44-1.135c0.403-0.158,1.056-0.148,1.229,0.344
				C354.884,174.385,355.831,174.131,355.621,173.534z"/>
			<path style="fill:#F4B1A4;" d="M334.782,185.653c0,3.825-3.101,6.926-6.926,6.926c-3.825,0-6.926-3.101-6.926-6.926
				c0-3.825,3.101-6.926,6.926-6.926C331.681,178.727,334.782,181.828,334.782,185.653z"/>
			<path style="fill:#371E5B;" d="M317.248,190.668c-2.821,3.749-7.163,6.292-11.815,6.911c-0.616,0.082-0.624,1.062,0,0.979
				c5.035-0.669,9.607-3.336,12.661-7.396C318.473,190.659,317.623,190.17,317.248,190.668z"/>
			<circle style="fill:#371E5B;" cx="300.493" cy="168.895" r="2.813"/>
			<circle style="fill:#371E5B;" cx="323.744" cy="168.895" r="2.813"/>
			<path style="fill:#371E5B;" d="M303.399,160.32c-0.225-0.697-1.039-1.321-1.807-1.026c-1.843,0.708-3.67,1.454-5.485,2.23
				c-0.314,0.134-0.589,0.565-0.675,0.878c-0.097,0.352-0.053,0.82,0.148,1.132c0.202,0.314,0.503,0.59,0.878,0.675
				c0.411,0.094,0.748,0.016,1.132-0.148c0.123-0.053,0.247-0.105,0.371-0.158c0.009-0.004,0.022-0.009,0.035-0.015
				c0.211-0.092,0.424-0.178,0.636-0.266c0.403-0.168,0.807-0.333,1.212-0.497c0.84-0.34,1.684-0.673,2.53-0.998
				c0.367-0.141,0.672-0.324,0.878-0.675C303.435,161.137,303.513,160.673,303.399,160.32z"/>
			<path style="fill:#371E5B;" d="M327.135,159.373c-2.004-0.039-4.006-0.123-6.006-0.252c-0.768-0.05-1.503,0.711-1.469,1.469
				c0.038,0.838,0.646,1.416,1.469,1.469c2,0.129,4.003,0.213,6.006,0.252c0.769,0.015,1.504-0.686,1.469-1.469
				C328.567,160.033,327.958,159.389,327.135,159.373z"/>
			<path style="fill:#ED4A4A;" d="M363.474,163.575c-1.249-0.121-2.649,0.221-3.889,0.363c-1.413,0.162-2.826,0.327-4.238,0.501
				c-5.108,0.628-10.201,1.38-15.24,2.434c0.054-4.47-2.105-9.064-5.727-11.601c-4.452-3.118-11.321-3.685-16.153-0.926
				c-0.163-0.003-0.332,0.023-0.509,0.13c-1.038,0.628-1.869,1.474-2.553,2.436c-0.025,0.031-0.055,0.057-0.08,0.088
				c-0.063,0.079-0.107,0.161-0.143,0.244c-0.886,1.347-1.507,2.893-1.959,4.427c-0.431,1.466-0.7,3.006-0.754,4.548
				c-0.05-0.01-0.094-0.031-0.147-0.034c-1.223-0.07-2.449-0.058-3.671,0.016c-0.15-4.251-2.134-8.516-5.349-10.925
				c-4.162-3.118-10.584-3.684-15.103-0.926c-0.152-0.004-0.311,0.023-0.476,0.13c-0.971,0.628-1.747,1.474-2.388,2.436
				c-0.024,0.031-0.051,0.057-0.074,0.088c-0.059,0.079-0.1,0.161-0.134,0.244c-0.829,1.347-1.409,2.893-1.831,4.427
				c-0.788,2.867-1.009,6.015-0.243,8.915c1.479,5.604,6.607,8.867,11.853,9.057c5.604,0.202,11.336-3.079,13.175-8.967
				c0.255-0.816,0.414-1.661,0.502-2.518c1.245-0.078,2.493-0.09,3.739-0.019c0.069,0.004,0.133-0.023,0.199-0.037
				c0.074,0.838,0.213,1.669,0.441,2.48c1.582,5.604,7.066,8.867,12.678,9.057c5.994,0.202,12.124-3.079,14.091-8.967
				c0.193-0.579,0.331-1.173,0.434-1.775c4.399-0.947,8.843-1.658,13.305-2.237c2.194-0.285,4.392-0.544,6.591-0.795
				c1.018-0.116,2.133-0.386,3.157-0.35c0.652,0.023,0.626,0.219,0.755,0.847c0.124,0.599,0.158,1.202,0.171,1.811
				c0.026,1.258,1.985,1.263,1.958,0C365.826,166.409,365.709,163.791,363.474,163.575z M306.511,168.023
				c-1.017,10.799-16.865,13.207-21.301,3.807c-1.196-2.535-1.259-5.543-0.71-8.274c0.356-1.772,0.935-3.739,1.94-5.314
				c3.31-4.248,9.33-4.487,13.829-2.388C304.631,157.888,306.978,163.057,306.511,168.023z M338.069,168.018
				c-1.087,10.799-18.038,13.207-22.783,3.807c-1.279-2.535-1.347-5.543-0.759-8.274c0.381-1.772,1-3.739,2.076-5.314
				c3.54-4.248,9.978-4.487,14.791-2.388C336.059,157.883,338.569,163.053,338.069,168.018z"/>
			<path style="fill:#D8954C;" d="M308.589,188.249c-0.927-0.118-1.848-0.271-2.76-0.48c-0.419-0.096-0.837-0.201-1.251-0.316
				c-0.186-0.051-0.449-0.079-0.618-0.181c-0.26-0.156-0.292-0.27-0.265-0.583c0.04-0.453,0.246-0.944,0.364-1.382
				c0.115-0.426,0.231-0.852,0.347-1.277c0.243-0.89,0.488-1.779,0.736-2.668c0.99-3.555,2.016-7.099,3.077-10.632
				c0.181-0.603-0.742-0.931-0.923-0.327c-1.222,4.072-2.399,8.157-3.526,12.256c-0.277,1.005-0.55,2.012-0.821,3.019
				c-0.18,0.67-0.481,1.513,0.039,2.113c0.521,0.601,1.676,0.706,2.401,0.875c1.034,0.241,2.078,0.426,3.131,0.559
				C309.145,189.306,309.213,188.329,308.589,188.249z"/>
		</g>
		<g>
			<path style="fill:#FFFFFF;" d="M300.297,337.284c-3.672-0.901-5.787-5.65-4.005-8.989c0.519-0.96,1.312-1.88,1.273-2.977
				c-0.029-0.744-0.46-1.41-0.901-2.017c-2.007-2.791-4.543-5.239-6.022-8.343c-1.479-3.104-1.606-7.246,0.911-9.586
				c0.96-0.891,2.281-1.527,2.722-2.751c0.539-1.508-0.499-3.065-1.4-4.377c-6.286-9.087-8.734-20.7-6.776-31.569
				c10.115,1.263,20.22,2.536,30.335,3.799c1.155,0.147,2.379,0.323,3.251,1.077c0.773,0.666,1.146,1.665,1.714,2.507
				c2.487,3.691,9.165,3.016,10.849-1.107c1.586,2.105,3.907,4.465,6.414,3.672c1.087-0.343,1.929-1.243,3.016-1.576
				c0.323-0.098,0.656-0.147,0.989-0.157c7.667,20.152,13.16,41.116,16.372,62.433c0.431,2.801,0.813,5.601,1.155,8.411
				c1.479,12.064,2.242,24.303,5.572,36.004c0.078,0.264,0.157,0.539,0.245,0.803c-26.849-2.712-53.738-5.523-80.303-10.086
				c4.132-6.198,6.463-13.571,6.629-21.013c0.069-3.104-0.186-6.414,1.4-9.087C295.156,339.938,297.8,338.557,300.297,337.284z"/>
			<path style="fill:#CEEAE8;" d="M350.803,336.511c0.235,1.126-0.695,2.164-1.645,2.83c-3.143,2.203-7.119,2.761-10.644,4.289
				c-0.392,0.167-0.813,0.382-0.96,0.783c-0.225,0.597,0.304,1.204,0.803,1.616c2.918,2.36,6.884,4.054,7.961,7.647
				c-10.663,1.341-21.464,1.527-32.166,0.548c-4.25-0.382-8.842-1.126-11.789-4.201c-0.568-0.588-1.087-1.361-0.93-2.154
				c0.196-1.018,1.322-1.518,2.301-1.851c13.278-4.543,26.81-8.382,40.499-11.486c1.106-0.059,2.223-0.039,3.339,0.059
				C348.913,334.709,350.519,335.189,350.803,336.511z"/>
		</g>
		<g>
			<path style="fill:#ED4A4A;" d="M230.227,311.209c-0.068-0.304-0.196-0.597-0.372-0.862l-0.206-0.157
				c0.49-0.656,0.774-1.469,0.676-2.281c-0.098-0.773-0.509-1.42-1.077-1.958l0.754-0.264c6.894,0.842,13.738,2.105,20.485,3.77
				c0.46-1.527,0.215-3.172,0.313-4.769c0.098-1.596,0.715-3.359,2.183-3.985c2.615-1.106,5.043,2.096,7.843,2.526
				c4.24-12.935,8.48-25.87,12.72-38.815c3.035,1.058,6.306,1.479,9.518,1.88c1.009,0.127,2.027,0.255,3.035,0.382
				c-1.958,10.869,0.49,22.482,6.776,31.569c0.901,1.312,1.939,2.869,1.4,4.377c-0.441,1.224-1.763,1.861-2.722,2.751
				c-2.517,2.34-2.389,6.482-0.911,9.586c1.479,3.104,4.015,5.552,6.022,8.343c0.441,0.607,0.871,1.273,0.901,2.017
				c0.039,1.097-0.754,2.017-1.273,2.977c-1.782,3.339,0.333,8.088,4.005,8.989c-2.497,1.273-5.141,2.654-6.561,5.072
				c-1.586,2.673-1.332,5.983-1.4,9.087c-0.167,7.442-2.497,14.815-6.629,21.013c-3.701-0.636-7.403-1.302-11.094-2.007
				c1.39-9.86,2.771-19.73,4.161-29.591c0.01-0.049,0.01-0.098,0.01-0.157c-3.633,3.466-7.403,6.766-11.3,9.919
				c-1.067,0.871-2.213,1.753-3.564,1.988c-1.4,0.245-2.82-0.235-4.152-0.734c-14.942-5.562-28.808-14.032-40.597-24.773
				c0.166-0.02,0.323-0.049,0.49-0.078c4.504-0.803,9.018-3.329,10.751-7.569c0.362-0.871,0.597-1.841,0.402-2.771
				c-0.176-0.774-0.715-1.508-1.43-1.792c-0.039-0.02-0.078-0.029-0.117-0.049l0.01-0.01
				C230.109,313.843,230.54,312.423,230.227,311.209z"/>
			<g>
				<defs>
					<path id="SVGID_00000154414624985186869850000009186677540265241271_" d="M403.415,404.623
						c-4.73,11.574-10.82,22.942-11.878,35.407c-0.411-0.871-0.813-1.733-1.224-2.605c-4.749-10.125-9.518-20.249-14.277-30.374
						c-3.564-7.589-7.138-15.216-9.635-23.207c-0.137-0.431-0.274-0.862-0.392-1.302c-0.088-0.264-0.167-0.539-0.245-0.803
						c-3.329-11.701-4.093-23.941-5.572-36.004c-0.343-2.81-0.724-5.611-1.155-8.411c-3.212-21.317-8.705-42.281-16.372-62.433
						c-0.333,0.01-0.666,0.059-0.989,0.157c-1.087,0.333-1.929,1.234-3.016,1.576c-2.507,0.793-4.827-1.567-6.414-3.672
						c-1.684,4.122-8.362,4.798-10.849,1.107c-0.568-0.842-0.94-1.841-1.714-2.507c-0.871-0.754-2.095-0.93-3.251-1.077
						c-10.115-1.263-20.22-2.536-30.335-3.799c-1.009-0.127-2.027-0.255-3.035-0.382c-3.212-0.401-6.482-0.823-9.518-1.88
						c-1.097-0.382-2.154-0.842-3.173-1.42c-5.337-3.006-8.617-8.587-11.78-13.836c-12.152-20.093-26.389-38.942-42.408-56.107
						l-0.255,0.235c-1.782,1.038-3.848,1.557-5.904,1.498c-0.529-0.02-1.097-0.088-1.479-0.46c-0.519-0.499-0.48-1.342-0.362-2.056
						c0.49-2.938,1.586-5.767,3.222-8.255c-1.557,0.901-3.222,1.596-4.955,2.076c-0.783,0.215-1.802,0.323-2.272-0.353
						c-0.352-0.519-0.186-1.214,0.02-1.802c1.518-4.308,4.524-7.912,7.608-11.28c0.127-0.137,0.255-0.284,0.392-0.421
						c3.349-3.623,6.854-7.109,10.526-10.409c1.273-1.155,2.566-2.291,3.878-3.398l0.343,0.402c0.93-1.087,2.585-1.488,3.907-0.95
						c1.322,0.538,2.233,1.978,2.135,3.408c-0.088,1.273-0.636,3.045,0.578,3.486c0.441,0.167,0.93,0.01,1.4-0.039
						c1.743-0.206,3.378,1.009,4.357,2.468c0.969,1.459,1.488,3.173,2.282,4.739c1.341,2.614,3.447,4.749,5.513,6.835
						c14.139,14.345,27.868,29.101,41.155,44.249c0.646-1.195,0.646-2.624,0.92-3.956c0.274-1.322,1.009-2.752,2.331-3.065
						c1.449-0.333,2.82,0.852,3.594,2.125c0.773,1.273,1.293,2.761,2.438,3.721c0.451-0.656,1.087-1.185,1.802-1.537
						c1.263-0.636,2.81-0.754,4.132-0.186c1.841,0.793,3.035,2.83,2.918,4.818c2.487-0.088,4.964-0.176,7.451-0.264
						c2.389-0.088,4.778-0.167,7.168-0.245c11.026-0.392,22.061-0.783,33.096-1.165c1.87-0.069,3.75-0.127,5.621-0.196
						c4.778-0.166,9.645-0.333,14.286,0.872c4.357,1.136,8.255,3.456,11.535,6.521c4.289,4.015,7.53,9.312,9.381,14.923
						c3.27,9.88,2.81,20.622,1.234,30.913s-4.24,20.426-5.258,30.785c-0.088,0.823-0.147,1.694,0.245,2.419
						c0.421,0.783,1.273,1.214,2.086,1.567c3.731,1.635,8.695,4.152,7.667,8.098c-0.734,2.83-4.583,4.935-3.515,7.647
						c0.45,1.136,1.625,1.772,2.409,2.693c2.801,3.3-0.196,8.117-1.253,12.308c-2.321,9.175,5.346,17.508,8.646,26.369
						C411.581,379.908,408.144,393.049,403.415,404.623z"/>
				</defs>
				<clipPath id="SVGID_00000114070439648546783870000009592697812365596085_">
					<use xlink:href="#SVGID_00000154414624985186869850000009186677540265241271_"  style="overflow:visible;"/>
				</clipPath>
				<path style="clip-path:url(#SVGID_00000114070439648546783870000009592697812365596085_);fill:#FF7373;" d="M403.415,404.623
					c-4.73,11.574-10.82,22.942-11.878,35.407c-0.411-0.871-0.813-1.733-1.224-2.605c-4.749-10.125-9.518-20.249-14.277-30.374
					c-3.564-7.589-7.138-15.216-9.635-23.207c-0.137-0.431-0.274-0.862-0.392-1.302c-0.088-0.264-0.167-0.539-0.245-0.803
					c-3.329-11.701-4.093-23.941-5.572-36.004c-0.343-2.81-0.724-5.611-1.155-8.411c-3.212-21.317-8.705-42.281-16.372-62.433
					c-0.333,0.01-0.666,0.059-0.989,0.157c-1.087,0.333-1.929,1.234-3.016,1.576c-2.507,0.793-4.827-1.567-6.414-3.672
					c-1.684,4.122-8.362,4.798-10.849,1.107c-0.568-0.842-0.94-1.841-1.714-2.507c-0.871-0.754-2.095-0.93-3.251-1.077
					c-10.115-1.263-20.22-2.536-30.335-3.799c-1.009-0.127-2.027-0.255-3.035-0.382c-3.212-0.401-6.482-0.823-9.518-1.88
					c-1.097-0.382-2.154-0.842-3.173-1.42c-5.337-3.006-8.617-8.587-11.78-13.836c-12.152-20.093-26.389-38.942-42.408-56.107
					l-0.255,0.235c-1.782,1.038-3.848,1.557-5.904,1.498c-0.529-0.02-1.097-0.088-1.479-0.46c-0.519-0.499-0.48-1.342-0.362-2.056
					c0.49-2.938,1.586-5.767,3.222-8.255c-1.557,0.901-3.222,1.596-4.955,2.076c-0.783,0.215-1.802,0.323-2.272-0.353
					c-0.352-0.519-0.186-1.214,0.02-1.802c1.518-4.308,4.524-7.912,7.608-11.28c0.127-0.137,0.255-0.284,0.392-0.421
					c3.349-3.623,6.854-7.109,10.526-10.409c1.273-1.155,2.566-2.291,3.878-3.398l0.343,0.402c0.93-1.087,2.585-1.488,3.907-0.95
					c1.322,0.538,2.233,1.978,2.135,3.408c-0.088,1.273-0.636,3.045,0.578,3.486c0.441,0.167,0.93,0.01,1.4-0.039
					c1.743-0.206,3.378,1.009,4.357,2.468c0.969,1.459,1.488,3.173,2.282,4.739c1.341,2.614,3.447,4.749,5.513,6.835
					c14.139,14.345,27.868,29.101,41.155,44.249c0.646-1.195,0.646-2.624,0.92-3.956c0.274-1.322,1.009-2.752,2.331-3.065
					c1.449-0.333,2.82,0.852,3.594,2.125c0.773,1.273,1.293,2.761,2.438,3.721c0.451-0.656,1.087-1.185,1.802-1.537
					c1.263-0.636,2.81-0.754,4.132-0.186c1.841,0.793,3.035,2.83,2.918,4.818c2.487-0.088,4.964-0.176,7.451-0.264
					c2.389-0.088,4.778-0.167,7.168-0.245c11.026-0.392,22.061-0.783,33.096-1.165c1.87-0.069,3.75-0.127,5.621-0.196
					c4.778-0.166,9.645-0.333,14.286,0.872c4.357,1.136,8.255,3.456,11.535,6.521c4.289,4.015,7.53,9.312,9.381,14.923
					c3.27,9.88,2.81,20.622,1.234,30.913s-4.24,20.426-5.258,30.785c-0.088,0.823-0.147,1.694,0.245,2.419
					c0.421,0.783,1.273,1.214,2.086,1.567c3.731,1.635,8.695,4.152,7.667,8.098c-0.734,2.83-4.583,4.935-3.515,7.647
					c0.45,1.136,1.625,1.772,2.409,2.693c2.801,3.3-0.196,8.117-1.253,12.308c-2.321,9.175,5.346,17.508,8.646,26.369
					C411.581,379.908,408.144,393.049,403.415,404.623z"/>
				<path style="clip-path:url(#SVGID_00000114070439648546783870000009592697812365596085_);fill:#ED4A4A;" d="M344.683,275.116
					c10.223,1.9,20.455,3.799,30.678,5.709c-7.422,18.184-12.906,37.16-16.323,56.499c-3.212-21.317-8.705-42.281-16.372-62.433
					C343.342,274.881,344.027,274.999,344.683,275.116z"/>
				<path style="clip-path:url(#SVGID_00000114070439648546783870000009592697812365596085_);fill:#ED4A4A;" d="M305.573,226.49
					c-0.318-1.218-2.207-0.702-1.888,0.521c0.554,2.124,1.085,4.274,1.262,6.468c0.091,1.121,0.101,2.257-0.027,3.375
					c-0.065,0.568-0.169,2.428-0.864,2.583c-0.718,0.161-1.58-1.025-1.93-1.522c-0.471-0.668-0.845-1.401-1.211-2.131
					c-0.754-1.504-1.492-3.009-2.704-4.207c-0.6-0.594-1.674-0.161-1.672,0.693c0.006,2.348-0.227,4.679-0.748,6.969
					c-0.269,1.185-0.606,2.354-1.009,3.499c-0.086,0.245-0.192,0.485-0.277,0.729c-0.052,0.147-0.123,0.198-0.132,0.236
					c-0.273-0.292-0.502-1.129-0.595-1.358c-1.765-4.368-2.649-9.034-2.642-13.742c0.002-1.26-1.957-1.262-1.958,0
					c-0.004,2.946,0.32,5.891,0.982,8.763c0.333,1.446,0.755,2.872,1.26,4.268c0.411,1.136,0.804,2.693,1.705,3.555
					c0.833,0.798,2.033,0.641,2.741-0.22c0.841-1.023,1.156-2.674,1.495-3.924c0.527-1.94,0.852-3.931,1.013-5.935
					c0.569,1.035,1.042,2.135,1.647,3.147c0.939,1.567,2.935,4.004,5.033,2.912c0.973-0.507,1.319-1.548,1.543-2.556
					c0.287-1.293,0.401-2.626,0.372-3.949C306.905,231.89,306.271,229.163,305.573,226.49z"/>
				<path style="clip-path:url(#SVGID_00000114070439648546783870000009592697812365596085_);fill:#ED4A4A;" d="M338.393,266.972
					c-0.354-0.715-0.709-1.431-1.063-2.147c-0.256-0.516-0.475-1.088-0.854-1.531c-0.823-0.96-2.087-0.919-3.086-0.257
					c-0.544,0.36-0.918,0.841-1.321,1.341c-0.222,0.275-0.648,0.91-1.054,0.922c-0.48,0.013-0.796-0.921-0.968-1.257
					c-0.352-0.692-0.701-1.386-1.051-2.079c-0.538-1.064-1.01-2.614-2.316-2.93c-1.205-0.291-2.11,0.737-2.641,1.672
					c-1.406,2.474-2.408,5.194-3.021,7.968c-0.271,1.228,1.616,1.753,1.888,0.521c0.529-2.395,1.343-4.711,2.488-6.882
					c0.209-0.396,0.409-0.944,0.758-1.236c0.169-0.142,0.071-0.208,0.221,0.057c0.157,0.277,0.297,0.564,0.441,0.848
					c0.577,1.142,1.138,2.294,1.734,3.427c0.448,0.851,1.074,1.643,2.075,1.811c1.001,0.168,1.89-0.4,2.54-1.114
					c0.358-0.393,1.311-2.006,1.887-1.457c0.334,0.318,0.515,1.013,0.723,1.432l0.93,1.878
					C337.262,269.09,338.952,268.099,338.393,266.972z"/>
				<path style="clip-path:url(#SVGID_00000114070439648546783870000009592697812365596085_);fill:#ED4A4A;" d="M386.54,268.821
					c-3.241,3.185-6.481,6.37-9.722,9.555c-0.9,0.885,0.485,2.269,1.385,1.385c3.241-3.185,6.481-6.37,9.722-9.555
					C388.825,269.321,387.44,267.936,386.54,268.821z"/>
				<path style="clip-path:url(#SVGID_00000114070439648546783870000009592697812365596085_);fill:#ED4A4A;" d="M388.826,277.591
					c-3.309,1.987-6.717,3.805-10.21,5.446c-0.479,0.225-0.601,0.913-0.351,1.34c0.287,0.49,0.859,0.577,1.34,0.351
					c3.494-1.641,6.901-3.459,10.211-5.446C390.894,278.634,389.91,276.94,388.826,277.591z"/>
				<path style="clip-path:url(#SVGID_00000114070439648546783870000009592697812365596085_);fill:#ED4A4A;" d="M389.91,332.533
					c-2.021,0.54-4.077,0.924-6.162,1.104c-0.516,0.044-1.034,0.077-1.552,0.1c-0.335,0.014-0.742-0.026-1.116-0.015
					c0.016-0.015,0.037-0.037,0.047-0.044c0.384-0.317,0.771-0.629,1.164-0.935c1.544-1.201,3.164-2.308,4.834-3.327
					c1.346-0.821,3.554-1.608,3.499-3.509c-0.014-0.493-0.438-1.028-0.979-0.979c-2.168,0.194-4.342,0.31-6.518,0.335
					c-1.088,0.012-2.176,0.003-3.264-0.028c-0.544-0.016-1.088-0.036-1.631-0.063c-0.249-0.013-0.465-0.016-0.705-0.073
					c-0.024-0.006-0.029-0.004-0.047-0.007c0.029-0.004,0.062-0.011,0.097-0.03c0.842-0.461,1.623-1.163,2.437-1.688
					c0.836-0.539,1.686-1.054,2.551-1.544c1.786-1.012,3.631-1.922,5.525-2.713c1.146-0.478,0.643-2.374-0.521-1.888
					c-2.374,0.991-4.683,2.12-6.896,3.434c-1.111,0.66-2.198,1.361-3.258,2.102c-0.85,0.594-1.979,1.254-1.982,2.431
					c-0.003,1.03,0.854,1.651,1.785,1.838c1.267,0.253,2.662,0.172,3.948,0.188c2.034,0.025,4.067-0.03,6.096-0.156
					c-0.334,0.193-0.67,0.383-1,0.583c-0.936,0.568-1.855,1.164-2.755,1.788c-0.968,0.672-1.912,1.378-2.838,2.107
					c-0.735,0.579-1.825,1.227-2.115,2.176c-0.797,2.604,3.38,2.012,4.727,1.914c2.415-0.176,4.808-0.585,7.147-1.21
					C391.647,334.096,391.131,332.207,389.91,332.533z"/>
				<path style="clip-path:url(#SVGID_00000114070439648546783870000009592697812365596085_);fill:#ED4A4A;" d="M229.667,168.861
					c-2.174-0.307-4.196,0.997-6.009,2.054c-1.936,1.129-3.768,2.422-5.54,3.792c-1.71,1.322-3.36,2.718-4.987,4.14
					c-0.896,0.783-3.958,2.81-1.981,4.074c0.769,0.491,1.49-0.254,1.437-0.962c0.034-0.036,0.066-0.069,0.111-0.127
					c0.173-0.153,0.345-0.305,0.518-0.458c0.346-0.305,0.692-0.611,1.039-0.915c0.608-0.533,1.218-1.063,1.834-1.587
					c1.297-1.105,2.614-2.187,3.979-3.207c1.333-0.996,2.707-1.94,4.134-2.797c0.689-0.413,1.389-0.807,2.102-1.176
					c0.145-0.075,0.297-0.157,0.451-0.239c-4.423,5.442-8.296,11.311-11.543,17.532c-0.583,1.116,1.107,2.107,1.691,0.988
					c3.641-6.975,8.059-13.515,13.195-19.477C230.52,170.009,230.461,168.973,229.667,168.861z"/>
				<path style="clip-path:url(#SVGID_00000114070439648546783870000009592697812365596085_);fill:#FFB3B3;" d="M253.504,174.397
					c-12.755,9.424-24.534,20.107-35.112,31.924c-1.258,1.405,0.813,3.489,2.077,2.077c10.404-11.624,21.969-22.194,34.517-31.465
					C256.49,175.822,255.027,173.272,253.504,174.397z"/>
				<path style="clip-path:url(#SVGID_00000114070439648546783870000009592697812365596085_);fill:#FFB3B3;" d="M266.277,185.803
					c-13.035,10.273-25.442,21.327-37.146,33.095c-1.335,1.342,0.742,3.42,2.077,2.077c11.704-11.768,24.111-22.821,37.146-33.095
					C269.838,186.711,267.746,184.645,266.277,185.803z"/>
				<path style="clip-path:url(#SVGID_00000114070439648546783870000009592697812365596085_);fill:#FFB3B3;" d="M280.239,201.046
					c-15.212,9.749-29.241,21.304-41.708,34.383c-1.304,1.368,0.77,3.449,2.077,2.077c12.3-12.904,26.104-24.305,41.113-33.924
					C283.309,202.565,281.837,200.022,280.239,201.046z"/>
				<path style="clip-path:url(#SVGID_00000114070439648546783870000009592697812365596085_);fill:#FFB3B3;" d="M287.669,212.479
					c-13.672,12.994-26.824,26.529-39.42,40.569c-1.259,1.404,0.812,3.488,2.077,2.077c12.596-14.04,25.748-27.575,39.42-40.569
					C291.119,213.251,289.039,211.176,287.669,212.479z"/>
				<path style="clip-path:url(#SVGID_00000114070439648546783870000009592697812365596085_);fill:#FFB3B3;" d="M297.389,213.58
					c-5.869,14.552-10.74,29.499-14.544,44.723c-1.092,4.37-2.093,8.763-3.012,13.173c-0.385,1.845,2.446,2.633,2.833,0.781
					c3.202-15.36,7.453-30.496,12.745-45.268c1.519-4.241,3.126-8.45,4.811-12.628C300.929,212.608,298.089,211.846,297.389,213.58z
					"/>
				<path style="clip-path:url(#SVGID_00000114070439648546783870000009592697812365596085_);fill:#FFB3B3;" d="M309.749,219.809
					c-4.742,17.78-8.2,35.879-10.391,54.149c-0.225,1.873,2.715,1.857,2.938,0c2.159-18.006,5.612-35.846,10.286-53.368
					C313.069,218.762,310.236,217.982,309.749,219.809z"/>
				<path style="clip-path:url(#SVGID_00000114070439648546783870000009592697812365596085_);fill:#FFB3B3;" d="M331.503,216.594
					c-3.589,15.657-6.165,31.544-7.699,47.534c-0.441,4.599-0.793,9.206-1.063,13.818c-0.111,1.888,2.827,1.882,2.938,0
					c1.195-20.394,4.093-40.658,8.658-60.571C334.758,215.535,331.926,214.749,331.503,216.594z"/>
				<path style="clip-path:url(#SVGID_00000114070439648546783870000009592697812365596085_);fill:#FFB3B3;" d="M355.489,217.715
					c-4.393,16.161-8.264,32.463-11.591,48.878c-0.95,4.69-1.855,9.388-2.719,14.095c-0.339,1.848,2.491,2.641,2.833,0.781
					c3.023-16.473,6.577-32.847,10.67-49.087c1.17-4.64,2.384-9.268,3.639-13.886C358.819,216.669,355.986,215.89,355.489,217.715z"
					/>
				<path style="clip-path:url(#SVGID_00000114070439648546783870000009592697812365596085_);fill:#FFB3B3;" d="M372.71,219.446
					c-3.759,19.21-7.519,38.419-11.278,57.629c-0.361,1.847,2.469,2.637,2.833,0.781c3.759-19.21,7.519-38.42,11.278-57.629
					C375.904,218.38,373.073,217.589,372.71,219.446z"/>
				<path style="clip-path:url(#SVGID_00000114070439648546783870000009592697812365596085_);fill:#FFB3B3;" d="M398.367,263.512
					c-7.826,5.557-15.803,10.897-23.922,16.015c-1.595,1.006-0.123,3.549,1.483,2.536c8.119-5.118,16.096-10.458,23.922-16.015
					C401.379,264.963,399.913,262.414,398.367,263.512z"/>
				<path style="clip-path:url(#SVGID_00000114070439648546783870000009592697812365596085_);fill:#FFB3B3;" d="M398.488,285.404
					c-17.921,6.371-35.389,13.993-52.243,22.806c-1.676,0.876-0.193,3.412,1.483,2.537c16.633-8.697,33.856-16.222,51.542-22.51
					C401.038,287.607,400.276,284.768,398.488,285.404z"/>
				<path style="clip-path:url(#SVGID_00000114070439648546783870000009592697812365596085_);fill:#FFB3B3;" d="M405.302,311.401
					c-18.439,4.547-36.354,11.099-53.392,19.487c-1.696,0.835-0.209,3.369,1.483,2.536c16.814-8.277,34.495-14.704,52.69-19.191
					C407.917,313.781,407.14,310.947,405.302,311.401z"/>
				<path style="clip-path:url(#SVGID_00000114070439648546783870000009592697812365596085_);fill:#FFB3B3;" d="M404.497,336.959
					c-16.39,3.599-32.654,7.753-48.762,12.456c-1.811,0.529-1.04,3.364,0.781,2.833c16.108-4.702,32.372-8.857,48.762-12.456
					C407.124,339.387,406.343,336.554,404.497,336.959z"/>
				<path style="clip-path:url(#SVGID_00000114070439648546783870000009592697812365596085_);fill:#FFB3B3;" d="M406.344,348.318
					c-17.543,4.809-34.864,10.406-51.904,16.772c-1.755,0.656-0.995,3.496,0.781,2.833c17.04-6.366,34.361-11.963,51.904-16.772
					C408.946,350.651,408.173,347.816,406.344,348.318z"/>
				<path style="clip-path:url(#SVGID_00000114070439648546783870000009592697812365596085_);fill:#FFB3B3;" d="M409.524,374.758
					c-8.402,1.395-16.715,3.297-24.88,5.719c-4.007,1.189-7.978,2.501-11.906,3.933c-3.935,1.435-7.951,3.484-12.219,3.508
					c-1.89,0.011-1.894,2.948,0,2.938c4.283-0.024,8.186-1.834,12.128-3.292c4.066-1.504,8.18-2.878,12.333-4.121
					c8.308-2.485,16.771-4.431,25.325-5.852C412.165,377.282,411.376,374.451,409.524,374.758z"/>
				<path style="clip-path:url(#SVGID_00000114070439648546783870000009592697812365596085_);fill:#FFB3B3;" d="M408.984,397.671
					c-12.92,2.397-25.906,4.425-38.943,6.066c-1.851,0.233-1.874,3.173,0,2.938c13.298-1.674,26.546-3.726,39.724-6.171
					C411.621,400.159,410.835,397.327,408.984,397.671z"/>
			</g>
		</g>
		<g>
			<path style="fill:#F9CFAA;" d="M201.791,136.278c0.352-6.805,1.185-13.718,4.308-19.75c1.057-2.047,2.516-4.083,4.7-4.818
				c0.157-0.049,0.313-0.098,0.46-0.049c0.411,0.108,0.421,0.666,0.362,1.077c-0.607,4.113-0.196,8.303,0.362,12.426
				c1.723,12.68,4.847,25.292,10.742,36.661c-3.672,3.3-7.177,6.786-10.526,10.409c-4.005-1.811-8.137-3.349-12.357-4.602
				c-3.535-1.057-7.256-1.909-10.938-2.066c-2.977-0.127-5.924,0.186-8.724,1.214c-3.417,1.253-6.433,3.496-9.596,5.317
				c-2.056,1.185-4.181,2.193-6.512,2.634c-0.597,0.117-1.273,0.176-1.772-0.176c-0.597-0.431-0.676-1.204-0.548-1.968
				c7.501-6.11,15.559-11.545,24.039-16.186l-0.01-0.157c-6.179,1.067-12.22,2.947-17.919,5.572c-1.42,0.656-2.82,1.361-4.201,2.105
				c-3.31,1.792-6.511,3.868-10.056,5.141c-0.871,0.313-2.076,0.47-2.546-0.333c-0.098-0.166-0.137-0.343-0.147-0.529
				c4.269-4.269,9.723-7.177,15.207-9.723c7.197-3.329,14.639-6.159,22.237-8.431c-6.1,0.147-12.191,0.686-18.223,1.616
				c-3.271,0.499-6.531,1.126-9.762,1.851c-1.674,0.382-3.456,0.793-5.092,0.255c-0.333-0.118-0.676-0.284-0.901-0.568
				c-0.617-0.793,0.02-1.929,0.705-2.663c2.399-2.536,5.562-4.181,8.744-5.611C175.745,139.568,188.729,136.611,201.791,136.278z"/>
			<path style="fill:#D8954C;" d="M180.181,166.779c2.8-1.028,5.748-1.342,8.724-1.214c-3.094,2.086-6.423,3.838-9.89,5.19
				c-2.683,1.058-5.591,1.9-8.421,1.351l-0.01-0.01C173.747,170.275,176.763,168.033,180.181,166.779z"/>
			<path style="fill:#D8954C;" d="M185.782,156.243l0.01,0.157c-8.48,4.641-16.538,10.076-24.039,16.186
				c0.049-0.284,0.117-0.568,0.206-0.832c1.195-3.691,3.241-7.099,5.924-9.9l-0.02-0.039
				C173.561,159.191,179.603,157.311,185.782,156.243z"/>
			<path style="fill:#D8954C;" d="M170.134,151.661c6.032-0.93,12.122-1.469,18.223-1.616c-7.598,2.272-15.04,5.102-22.237,8.431
				c-5.484,2.546-10.938,5.454-15.207,9.723c-0.029-0.46,0.176-0.96,0.411-1.381c1.214-2.223,2.928-4.132,4.769-5.865
				C160.186,157.076,164.964,153.913,170.134,151.661z"/>
		</g>
		<g>
			<path style="fill:#FFFFFF;" d="M326.549,449.871c0.539,1.606,0.979,3.241,1.351,4.847c0.353,1.557,0.676,3.163,0.382,4.729
				c-0.294,1.655-1.253,3.124-2.379,4.377c-1.851,2.037-4.181,3.594-6.58,4.945c-3.535,2.017-7.285,3.662-11.084,5.131
				c-9.175,3.555-19.192,6.139-28.807,4.054c-3.192-0.685-6.394-1.968-8.597-4.387c-1.508-1.665-2.458-3.77-3.27-5.865
				c-2.135-5.503-3.555-11.28-4.201-17.145c0.166-0.744,0.441-1.479,0.793-2.164c0.46-0.911,1.067-1.753,1.772-2.458
				c2.517-2.497,6.022-3.701,9.42-4.72c1.449-0.431,2.908-0.852,4.377-1.243c8.519-2.282,17.263-3.809,26.076-3.976
				c2.193-0.039,4.445,0.02,6.609,0.372c2.115,0.353,4.162,0.979,6.002,2.066C322.554,440.882,324.982,445.22,326.549,449.871z"/>
			<path style="fill:#ED4A4A;" d="M285.551,431.707c0.039-0.108,0.078-0.225,0.108-0.343c0.421-1.498,0.969-3.398,2.507-3.594
				c0.568-0.078,1.126,0.117,1.655,0.313c7.53,2.761,15.07,5.523,22.59,8.284c-2.164-0.352-4.416-0.411-6.609-0.372
				c-8.813,0.166-17.557,1.694-26.076,3.976C282.476,437.935,284.552,434.987,285.551,431.707z"/>
			<path style="fill:#F9CFAA;" d="M268.434,424.187c5.709,2.507,11.417,5.013,17.116,7.52c-0.999,3.28-3.075,6.228-5.826,8.264
				c-1.469,0.392-2.928,0.813-4.377,1.243c-3.398,1.018-6.903,2.223-9.42,4.72c-0.705,0.705-1.312,1.547-1.772,2.458
				c-3.143-1.195-6.277-2.399-9.39-3.623c2.487-6.365,6.12-12.269,10.673-17.351C266.417,426.331,267.436,425.274,268.434,424.187z"
				/>
			<path style="fill:#BCDDDB;" d="M280.225,475.704c-4.02-10.193-7.664-20.529-10.926-30.989c-0.374-1.199-2.265-0.687-1.888,0.521
				c3.262,10.46,6.907,20.796,10.926,30.989C278.794,477.383,280.689,476.879,280.225,475.704z"/>
			<path style="fill:#BCDDDB;" d="M289.813,475.765c-3.479-11.813-6.837-23.661-10.073-35.542c-0.331-1.215-2.221-0.699-1.889,0.521
				c3.236,11.882,6.594,23.73,10.073,35.542C288.28,477.491,290.17,476.978,289.813,475.765z"/>
			<path style="fill:#BCDDDB;" d="M298.212,475.21c-2.686-12.417-5.546-24.795-8.579-37.131c-0.301-1.223-2.19-0.705-1.888,0.521
				c3.033,12.336,5.893,24.715,8.579,37.131C296.59,476.962,298.479,476.441,298.212,475.21z"/>
			<path style="fill:#BCDDDB;" d="M301.958,437.152c-0.23-1.238-2.117-0.713-1.888,0.521c2.149,11.584,4.297,23.168,6.446,34.751
				c0.23,1.238,2.117,0.713,1.888-0.521C306.256,460.32,304.107,448.736,301.958,437.152z"/>
			<path style="fill:#BCDDDB;" d="M318.175,466.651c-2.204-10.106-4.638-20.16-7.301-30.155c-0.324-1.217-2.214-0.701-1.888,0.521
				c2.663,9.995,5.097,20.049,7.301,30.155C316.555,468.403,318.444,467.882,318.175,466.651z"/>
			<path style="fill:#BCDDDB;" d="M326.579,462.056c-2.303-7.59-4.695-15.153-7.175-22.687c-0.392-1.192-2.284-0.681-1.888,0.521
				c2.48,7.534,4.872,15.097,7.175,22.687C325.056,463.779,326.947,463.267,326.579,462.056z"/>
		</g>
		<g>
			<path style="fill:#51516B;" d="M212.495,285.979l10.8,53.101c0.437,2.147,2.324,3.689,4.515,3.689h66.586
				c2.844,0,5.009-2.552,4.546-5.359l-8.775-53.101c-0.368-2.224-2.291-3.856-4.546-3.856H217.01
				C214.096,280.453,211.914,283.124,212.495,285.979z"/>
			<path style="fill:#7E7C93;" d="M210.619,285.979l10.8,53.101c0.437,2.147,2.324,3.689,4.515,3.689h66.586
				c2.844,0,5.009-2.552,4.546-5.359l-8.775-53.101c-0.368-2.224-2.291-3.856-4.546-3.856h-68.611
				C212.221,280.453,210.038,283.124,210.619,285.979z"/>
		</g>
		<g>
			<path style="fill:#F9CFAA;" d="M219.172,327.101c-1.763,0.274-3.613,0.274-5.209-0.519c-0.274-0.137-0.538-0.284-0.783-0.46
				c6.316-2.105,12.024-6.051,16.205-11.231c0.715,0.284,1.253,1.018,1.43,1.792c0.196,0.93-0.039,1.9-0.402,2.771
				c-1.733,4.24-6.247,6.766-10.751,7.569C219.495,327.052,219.338,327.081,219.172,327.101z"/>
			<path style="fill:#F9CFAA;" d="M230.325,307.909c0.098,0.813-0.186,1.625-0.676,2.281c-0.225,0.294-0.48,0.558-0.754,0.783
				c-0.921,0.734-2.056,1.136-3.182,1.469c-5.004,1.508-10.252,2.223-15.481,2.125c-1.557-0.039-3.173-0.157-4.582-0.823
				c-0.029-0.01-0.059-0.029-0.088-0.039c-1.067-0.529-1.939-1.391-2.546-2.409c7.373,1.234,15.265-1.224,20.69-6.375
				c0.685-0.215,1.351-0.499,1.9-0.95c0.558,0.196,1.107,0.431,1.645,0.685c0.705,0.333,1.43,0.764,1.998,1.293
				C229.815,306.489,230.227,307.135,230.325,307.909z"/>
			<path style="fill:#F9CFAA;" d="M229.267,314.841c-1.038,1.224-2.556,1.939-4.064,2.507c-3.055,1.175-6.247,1.958-9.469,2.497
				c-1.557,0.264-3.153,0.46-4.7,0.137c-0.441-0.098-0.872-0.235-1.283-0.411c4.387-1.567,8.773-3.173,13.131-4.808
				c2.556-0.96,5.141-1.949,7.344-3.554c0.313,1.214-0.117,2.634-0.95,3.623L229.267,314.841z"/>
			<path style="fill:#D8954C;" d="M209.194,319.287c-1.988-1.087-3.457-3.153-3.711-5.425l0.078-0.157
				c0.029,0.01,0.059,0.029,0.088,0.039c1.41,0.666,3.026,0.783,4.582,0.823c5.229,0.098,10.477-0.617,15.481-2.125
				c1.126-0.333,2.262-0.734,3.182-1.469c0.274-0.225,0.529-0.49,0.754-0.783l0.206,0.157c0.176,0.264,0.303,0.558,0.372,0.862
				c-2.203,1.606-4.788,2.595-7.344,3.554c-4.357,1.635-8.744,3.241-13.131,4.808C209.556,319.483,209.38,319.395,209.194,319.287z"
				/>
			<path style="fill:#D8954C;" d="M229.267,314.841c0.039,0.02,0.078,0.029,0.117,0.049c-4.181,5.18-9.89,9.126-16.205,11.231
				c-2.037-1.41-3.084-3.936-3.858-6.404c0.147-0.049,0.284-0.098,0.431-0.147c0.411,0.176,0.842,0.313,1.283,0.411
				c1.547,0.323,3.143,0.127,4.7-0.137c3.222-0.539,6.414-1.322,9.469-2.497C226.711,316.78,228.229,316.065,229.267,314.841z"/>
			<path style="fill:#F9CFAA;" d="M225.605,303.973c-0.372,0.421-1.9,0.95-1.9,0.95c-0.157,0.059-0.304,0.098-0.46,0.147
				c-5.258,1.586-10.791,2.047-16.284,2.262c-1.518,0.059-3.319-0.235-4.671-0.989c-1.606-0.891-2.565-2.448-1.645-4.827
				c1.224-3.182,8.499-3.271,11.3-3.584c4.387-0.49,9.057-0.441,12.896,1.733c0.764,0.441,1.537,1.028,1.743,1.89
				c0.215,0.872-0.245,1.792-0.92,2.379C225.644,303.953,225.624,303.963,225.605,303.973
				C225.37,303.884,225.85,304.041,225.605,303.973z"/>
			<path style="fill:#D8954C;" d="M223.245,305.069c0.157-0.049,0.303-0.088,0.46-0.147c-5.425,5.151-13.317,7.608-20.69,6.375
				c-0.872-1.479-1.195-3.3-0.725-4.955c1.351,0.754,3.153,1.048,4.671,0.989C212.454,307.116,217.987,306.656,223.245,305.069z"/>
		</g>
	</g>
</g>
</svg>
